<?xml version="1.0" standalone="no"?>
<!DOCTYPE svg PUBLIC "-//W3C//DTD SVG 1.1//EN" "http://www.w3.org/Graphics/SVG/1.1/DTD/svg11.dtd" >
<svg xmlns="http://www.w3.org/2000/svg">
<metadata>
This is a custom SVG webfont generated by Font Squirrel.
Copyright   : Copyright c 2004 by Magenta 2008 by George Triantafyllakos Released under the SIL Open Font License OFL
Designer    : MagentaGeorge Triantafyllakos
Foundry     : MagentaGeorge Triantafyllakos
Foundry URL : httpwwwmagentagr
</metadata>
<defs>
<font id="BPreplayBold" horiz-adv-x="1280" >
<font-face units-per-em="2048" ascent="1638" descent="-410" />
<missing-glyph horiz-adv-x="579" />
<glyph unicode=" "  horiz-adv-x="579" />
<glyph unicode="&#x09;" horiz-adv-x="579" />
<glyph unicode="&#xa0;" horiz-adv-x="579" />
<glyph unicode="!" horiz-adv-x="425" d="M8 182q0 76 53.5 129.5t128.5 53.5q78 0 131.5 -52.5t53.5 -130.5t-53.5 -130t-131.5 -52q-76 0 -129 53t-53 129zM33 668v745q0 170 155 170q158 0 158 -170v-745q0 -160 -160 -160q-153 0 -153 160z" />
<glyph unicode="&#x22;" horiz-adv-x="755" d="M18 1147v268q0 170 160 170q156 0 156 -170v-268q0 -162 -158 -162t-158 162zM416 1147v268q0 170 159 170q162 0 162 -170v-268q0 -162 -164 -162q-157 0 -157 162z" />
<glyph unicode="#" horiz-adv-x="1357" d="M45 559q0 74 52.5 114t117.5 40h66q10 37 22 112h-33q-160 0 -159 154q0 147 159 147h70q6 61 41 306q23 150 147 149q61 0 109.5 -46t48.5 -108l-41 -301h70l43 308q18 150 149 149q61 0 105.5 -44t44.5 -109v-19l-37 -285h24q66 0 114 -37.5t48 -111.5 q0 -152 -172 -152h-53q-10 -41 -20 -112h26q156 0 156 -154q0 -74 -51.5 -113.5t-110.5 -39.5h-63l-37 -240q-25 -166 -168 -166q-135 0 -135 139v8v5q2 6 2 8l36 246h-73l-35 -238q-25 -168 -168 -168q-135 0 -135 139v8q0 4 1 7.5t1 5.5l35 246h-23q-174 -1 -174 153z M584 713h73l19 112h-74z" />
<glyph unicode="$" horiz-adv-x="1114" d="M25 250q0 158 159 158q61 0 121 -35q66 -41 135 -54v388q-70 33 -118 59.5t-106 70.5t-94 89t-60.5 109.5t-24.5 138.5q0 162 112.5 296t290.5 162v54q0 76 15.5 102.5t83.5 26.5q66 0 80 -30t14 -116v-43q135 -25 244 -106q92 -68 92 -160q0 -66 -47.5 -119t-115 -53 t-128.5 51l-45 29v-279q106 -51 172.5 -93t129 -99.5t92.5 -129t30 -163.5q0 -207 -117 -342t-307 -172v-86q0 -70 -15.5 -95.5t-80.5 -25.5q-35 0 -55.5 7t-29 27.5t-10.5 39t-2 61.5v59q-178 16 -321 111q-94 62 -94 162zM381 1182q0 -57 59 -101v205q-59 -24 -59 -104z M633 350q76 49 76 142q0 63 -76 114v-256z" />
<glyph unicode="%" horiz-adv-x="1941" d="M57 1163q0 180 108.5 299t287 119t287 -125t108.5 -303q0 -182 -107.5 -305t-287.5 -123q-176 0 -286 130t-110 308zM365 1155q0 -57 23.5 -101t64.5 -44q47 0 71.5 41t24.5 100t-25.5 101t-70.5 42q-43 0 -65.5 -41t-22.5 -98zM569 125q0 35 13 63l495 1272 q43 113 154 113q63 0 105 -44t42 -106q0 -37 -18 -84l-510 -1282q-8 -29 -48 -57.5t-93 -28.5q-57 0 -98.5 43t-41.5 111zM1102 434q0 182 108.5 302t290.5 120q176 0 281.5 -128t105.5 -306q0 -182 -103.5 -302t-283.5 -120q-182 0 -290.5 126t-108.5 308zM1407 428 q0 -59 24.5 -101t69.5 -42q43 0 66.5 38.5t23.5 96t-23.5 102.5t-66.5 45t-68.5 -42t-25.5 -97z" />
<glyph unicode="&#x26;" horiz-adv-x="1556" d="M53 471q0 264 275 479q-88 119 -88 256q0 174 110.5 274.5t259.5 100.5q143 0 247 -96t104 -275q0 -160 -154 -317l199 -227l43 75q66 115 170 115q68 0 110.5 -42t42.5 -107q0 -61 -43 -136l-108 -159l122 -140q39 -41 39 -102q0 -70 -48 -120t-111 -50q-70 0 -105 33 l-108 114q-170 -186 -410 -186q-252 0 -399.5 142.5t-147.5 367.5zM371 469q0 -84 70.5 -140.5t160.5 -56.5q119 0 213 115l-289 318q-155 -127 -155 -236zM539 1237q0 -80 59 -160q74 82 74 148q0 39 -19.5 57t-46 18t-47 -16t-20.5 -47z" />
<glyph unicode="'" horiz-adv-x="522" d="M12 1124q0 27 8 56l115 280q49 125 166 125q66 0 116 -49t50 -119q0 -37 -16 -74l-117 -268q-49 -102 -156 -102q-66 0 -116 44t-50 107z" />
<glyph unicode="(" horiz-adv-x="591" d="M16 733q0 471 285 778q59 49 119 50q61 0 105 -44t44 -105.5t-43 -111.5q-201 -238 -200 -577q0 -168 50 -331t159 -275q35 -49 34 -107q0 -66 -42 -106.5t-105 -40.5q-72 0 -121 51q-145 145 -215 365.5t-70 453.5z" />
<glyph unicode=")" horiz-adv-x="591" d="M14 10q0 57 35 107q209 211 209 606q0 342 -199 577q-45 55 -45 111q0 61 46 105.5t108 44.5q57 0 106 -41q293 -315 293 -787q0 -233 -69.5 -454.5t-212.5 -364.5q-49 -51 -119 -51q-63 0 -107.5 40.5t-44.5 106.5z" />
<glyph unicode="*" d="M297 979q0 61 57 117l45 24l-49 33q-53 47 -53 113q0 57 43 101t102 44q10 0 30 -4t24 -4l51 -33q0 10 -3 25.5t-3 21.5q16 66 56 100.5t91 34.5q45 0 86 -32.5t60 -92.5l-3 -57l21 14q35 25 84 25q53 0 98 -43t45 -102q0 -72 -73 -129l-29 -15l18 -8q84 -45 84 -131 q0 -57 -42 -101t-101 -44q-27 0 -102 32v-22q0 -72 -43 -113t-103 -41q-55 0 -97 36t-50 101v41q-68 -37 -99 -36q-57 0 -101 42t-44 103z" />
<glyph unicode="+" d="M94 592q0 78 48 122t126 44h242v239q0 78 45 124t121 46q70 0 117 -49t47 -121v-239h241q84 0 132.5 -46t48.5 -120q0 -170 -181 -170h-241v-254q0 -70 -46 -119t-116 -49q-78 0 -123 46t-45 122v254h-242q-80 0 -127 43t-47 127z" />
<glyph unicode="," horiz-adv-x="520" d="M12 -90q0 20 11 51q0 2 2 6l122 297q49 115 160 115q63 0 110.5 -46t47.5 -108q0 -4 -12 -59l-138 -318q-45 -98 -143 -98q-61 0 -110.5 48.5t-49.5 111.5z" />
<glyph unicode="-" horiz-adv-x="800" d="M33 594q0 66 47 115t123 49h375q170 0 170 -164q0 -158 -170 -158h-375q-170 0 -170 158z" />
<glyph unicode="." horiz-adv-x="428" d="M8 182q0 76 53.5 129.5t128.5 53.5q78 0 131.5 -52.5t53.5 -130.5t-53.5 -130t-131.5 -52q-76 0 -129 53t-53 129z" />
<glyph unicode="/" d="M289 125q0 35 12 63l492 1272q49 113 157 113q63 0 104.5 -44t41.5 -106q0 -41 -17 -84l-510 -1282q-8 -29 -48 -57.5t-93 -28.5q-57 0 -98 43t-41 111z" />
<glyph unicode="0" horiz-adv-x="1206" d="M49 774q0 135 30 268.5t89 258t168.5 202.5t253.5 78h8q115 0 209 -51t152.5 -134t98.5 -190.5t56 -214t16 -213.5q0 -131 -29.5 -264t-89 -257t-168 -202t-249.5 -78q-147 0 -258 75t-170.5 197t-88 254t-28.5 271zM385 772q0 -104 18.5 -205.5t68.5 -183.5t122 -82 q53 0 95 49t64.5 124t34 150.5t11.5 143.5q0 78 -11.5 159t-34 156.5t-63.5 122.5t-94 47q-59 0 -103 -49t-65.5 -128t-32 -154.5t-10.5 -149.5z" />
<glyph unicode="1" horiz-adv-x="782" d="M6 1290q0 55 34 100.5t101 63.5l301 82q106 0 144 -96q16 -23 16 -125v-1145q0 -74 -45 -122t-118.5 -48t-120 48t-46.5 122v993q-63 -25 -110 -24q-63 0 -109.5 42.5t-46.5 108.5z" />
<glyph unicode="2" horiz-adv-x="1126" d="M43 1108q0 207 145.5 337t335.5 130q186 0 328.5 -122t142.5 -310q0 -201 -149 -404l-318 -420h330q156 0 156 -157q0 -162 -158 -162h-606q-190 0 -191 158q0 59 45 121l498 673q61 80 62 176q0 55 -44.5 89t-101.5 34q-59 0 -102 -40t-43 -111q0 -63 -44 -121.5 t-118 -58.5q-78 0 -123 59t-45 129z" />
<glyph unicode="3" horiz-adv-x="1095" d="M47 362q0 76 44 120t108 44q45 0 89 -27.5t64 -74.5q51 -119 154 -119q70 0 121 45t51 123q0 70 -36 129.5t-99 69.5h-68q-174 0 -174 139q0 74 42 104.5t132 30.5q39 0 60 4q39 12 64.5 67.5t25.5 108.5q0 61 -34 98.5t-95 37.5q-121 0 -134 -103q-2 -33 -31.5 -71.5 t-94.5 -38.5q-170 0 -170 147q0 152 125.5 268.5t312.5 116.5q195 0 320.5 -130t125.5 -298q0 -205 -180 -319q117 -63 176.5 -165t59.5 -216q0 -188 -138.5 -332t-359.5 -144q-127 0 -232.5 57.5t-169.5 145.5q-59 84 -59 182z" />
<glyph unicode="4" horiz-adv-x="1212" d="M33 520q0 68 43 125l-4 -6l475 766q82 131 217 131q90 0 149.5 -61.5t59.5 -163.5v-647q154 0 153 -162q0 -156 -151 -156v-170q0 -176 -164 -176q-76 0 -119 45t-43 131v168h-430q-88 0 -137 51t-49 125zM459 664h190v329z" />
<glyph unicode="5" horiz-adv-x="1126" d="M0 299q0 74 44 116t106 42q78 0 129 -70q31 -39 87 -64.5t111 -25.5q88 0 145.5 64.5t57.5 150.5q0 88 -54.5 152.5t-152.5 64.5q-35 0 -93 -15.5t-89 -15.5q-164 0 -164 158q0 33 96 526q31 150 191 150h430q74 0 117 -49t43 -121q0 -160 -160 -160h-340 q-8 -57 -25 -158q256 0 393.5 -151.5t137.5 -364.5q0 -221 -143.5 -386t-397.5 -165q-188 0 -328.5 105.5t-140.5 216.5z" />
<glyph unicode="6" horiz-adv-x="1114" d="M25 557q0 256 138 493.5t351 436.5q63 49 123 49q72 0 120 -44t48 -120q0 -61 -49 -110q-10 -10 -47 -42t-53.5 -47.5t-48.5 -47t-50 -54t-39.5 -55.5t-36.5 -66q57 31 166 31q186 0 288.5 -133t102.5 -318q0 -225 -142 -389t-368 -164q-238 0 -370.5 170t-132.5 410z M348 528q0 -92 48 -161.5t132 -71.5q86 8 137.5 74.5t51.5 156.5q0 86 -49.5 147.5t-143.5 61.5q-86 0 -131 -61.5t-45 -145.5z" />
<glyph unicode="7" horiz-adv-x="1114" d="M14 1370q0 164 176 164h646q70 0 122 -49t52 -127q0 -39 -19 -84l-483 -1145q-55 -129 -172 -129q-78 0 -116 48t-38 114q0 43 19 84l409 956h-420q-176 0 -176 168z" />
<glyph unicode="8" horiz-adv-x="1120" d="M41 485q0 106 58.5 207t148.5 152q-70 43 -113 126t-43 175q0 180 132 304t317 124q190 0 314 -120t124 -308q0 -82 -45 -164t-113 -125q84 -41 149.5 -153.5t65.5 -221.5q0 -207 -143 -355.5t-350 -148.5q-223 0 -362.5 143.5t-139.5 364.5zM377 492q0 -80 45 -133.5 t121 -53.5q70 0 113.5 53.5t43.5 128.5q0 80 -45 134.5t-112 54.5q-74 0 -120 -54t-46 -130zM420 1135q0 -59 30.5 -100.5t86.5 -41.5q47 0 77.5 43t30.5 98.5t-31.5 87t-74.5 31.5q-47 0 -83 -31.5t-36 -86.5z" />
<glyph unicode="9" horiz-adv-x="1185" d="M41 1034q0 221 138 383t386 162q233 0 372.5 -168t139.5 -424q0 -106 -24.5 -219t-78.5 -242t-160.5 -265t-254.5 -255q-49 -39 -113 -39q-66 0 -110.5 43t-44.5 107q0 84 67 139q209 168 316 326q-98 -35 -193 -35q-201 0 -320.5 149.5t-119.5 337.5zM369 1024 q0 -104 55 -164.5t135 -60.5q86 0 142.5 56t56.5 167q0 92 -52.5 162.5t-148.5 70.5q-90 0 -139 -70.5t-49 -160.5z" />
<glyph unicode=":" horiz-adv-x="423" d="M8 182q0 76 53.5 129.5t128.5 53.5q78 0 131.5 -52.5t53.5 -130.5t-53.5 -130t-131.5 -52q-76 0 -129 53t-53 129zM8 819q0 76 53.5 129t128.5 53q78 0 131.5 -52t53.5 -130q0 -76 -53.5 -128t-131.5 -52q-76 0 -129 52t-53 128z" />
<glyph unicode=";" horiz-adv-x="520" d="M12 -90q0 -63 49.5 -111.5t110.5 -48.5q98 0 143 98l138 318q12 55 12 59q0 61 -47 107.5t-111 46.5q-111 0 -160 -115l-122 -297v-2q-2 -2 -2 -4q-11 -31 -11 -51zM109 819q0 78 52 130t130 52t130 -52t52 -130q0 -76 -53 -128t-129 -52t-129 52t-53 128z" />
<glyph unicode="&#x3c;" horiz-adv-x="1333" d="M84 600q0 111 115 164l833 387h2q2 2 4 2q57 20 92 21q63 0 105.5 -43.5t42.5 -106.5q0 -104 -111 -158l-626 -260l616 -278q119 -53 119 -160q0 -68 -43 -117t-113 -49q-51 0 -112 29l-809 403q-115 57 -115 166z" />
<glyph unicode="=" horiz-adv-x="1349" d="M96 324q0 160 158 159h858q156 0 156 -157q0 -160 -156 -160h-858q-158 0 -158 158zM96 807q0 156 158 156h858q156 0 156 -160q0 -156 -156 -156h-858q-158 0 -158 160z" />
<glyph unicode="&#x3e;" horiz-adv-x="1333" d="M84 1024q0 63 42 106.5t105 43.5q33 0 101 -23l829 -387q117 -55 117 -164q0 -51 -32 -96t-83 -70l-811 -403q-61 -29 -110 -29q-72 0 -112 42t-40 110q0 100 121 159q111 53 306.5 137.5t318.5 143.5l-641 272q-111 54 -111 158z" />
<glyph unicode="?" horiz-adv-x="1003" d="M43 1149q0 178 125 282.5t287 104.5q172 0 291.5 -110.5t119.5 -307.5q0 -233 -354 -592q-57 -49 -115 -49q-72 0 -113.5 44t-41.5 116q0 66 63 131q123 123 180.5 202t57.5 148q0 49 -29 74t-68 25q-35 0 -60.5 -25t-27.5 -59q-8 -74 -53 -116t-106 -42q-63 0 -109.5 45 t-46.5 129zM217 182q0 76 53.5 129.5t129 53.5t128 -53.5t52.5 -129.5t-52.5 -129t-128 -53t-129 53t-53.5 129z" />
<glyph unicode="@" horiz-adv-x="1705" d="M96 739q0 369 207 604.5t565 235.5q307 0 497.5 -179t190.5 -495q0 -233 -85 -388t-218 -155q-111 0 -204 117q-104 -115 -238 -114q-166 0 -255 116.5t-89 280.5q0 172 95 299t263 127q109 0 199 -90q10 88 68 88q70 0 69 -99v-423q0 -164 86 -164q78 0 125 100t47 295 q0 250 -155.5 399.5t-397.5 149.5q-293 0 -459.5 -195.5t-166.5 -505.5q0 -285 173 -459.5t429 -174.5q340 0 497 176q39 41 76 41q25 0 41.5 -14.5t16.5 -39.5q0 -43 -27 -71q-106 -119 -274 -173.5t-341 -54.5q-311 0 -523 210t-212 556zM612 762q0 -104 55.5 -180 t159.5 -76q121 0 185 104v357q-76 82 -162 82q-109 0 -173.5 -86t-64.5 -201z" />
<glyph unicode="A" horiz-adv-x="1392" d="M35 162q0 27 12 67l430 1217q53 145 198.5 145t198.5 -145q457 -1247 457 -1286q0 -72 -42 -116t-118 -44q-117 0 -157 104l-72 185h-522q-10 -29 -28.5 -80t-26.5 -74q-45 -135 -175 -135q-78 0 -116.5 46t-38.5 116zM528 621h291l-143 405z" />
<glyph unicode="B" horiz-adv-x="1257" d="M27 186v1221q0 184 172 184h372q61 0 127 -14t133.5 -47t121 -81t86 -122t32.5 -164q0 -80 -64.5 -174t-129.5 -102q123 -18 213 -144.5t90 -255.5q0 -211 -146.5 -349t-349.5 -138h-453q-96 0 -137 31q-67 46 -67 155zM356 328h310q90 0 141 51t51 123q0 82 -67.5 143.5 t-190.5 61.5h-244v-379zM356 963h240q78 0 120 42t42 101q0 63 -47 110.5t-131 47.5h-224v-301z" />
<glyph unicode="C" horiz-adv-x="1458" d="M33 803q0 160 48 308.5t139 268t237.5 191t326.5 71.5q270 0 467 -178q63 -59 64 -139q0 -76 -46 -123t-116 -47q-80 0 -125 49q-96 96 -250 96q-190 0 -295.5 -143t-105.5 -342q0 -201 106.5 -343t296.5 -142q158 0 246 88q49 49 113 49q82 0 123 -47t41 -119 q0 -86 -62 -141q-205 -182 -467 -183q-180 0 -324.5 71t-233.5 187.5t-136 263t-47 304.5z" />
<glyph unicode="D" horiz-adv-x="1351" d="M33 172v1235q0 184 205 184h374q209 0 362.5 -119.5t225.5 -298t72 -385.5q0 -203 -83 -381t-246 -292.5t-370 -114.5h-366q-102 0 -138 33t-36 139zM362 328h203q170 0 269.5 137t99.5 323q0 195 -90 335.5t-252 140.5h-230v-936z" />
<glyph unicode="E" horiz-adv-x="993" d="M23 180v1233q0 178 172 178h577q164 0 164 -163.5t-164 -163.5h-422v-277h330q164 0 164 -166q0 -162 -164 -162h-330v-331h436q176 0 176.5 -164t-176.5 -164h-591q-111 0 -141.5 34.5t-30.5 145.5z" />
<glyph unicode="F" horiz-adv-x="909" d="M20 150v1257q0 184 173 184h559q166 0 166 -163.5t-166 -163.5h-402v-312h283q162 0 162 -166q0 -164 -162 -163h-283v-473q0 -150 -166 -150q-164 0 -164 150z" />
<glyph unicode="G" horiz-adv-x="1478" d="M37 780q0 172 47 327t136 277.5t233.5 194.5t322.5 72q190 0 360.5 -97.5t170.5 -232.5q0 -74 -42 -118t-104 -44q-70 0 -125 53q-109 98 -266 99q-186 0 -286.5 -150.5t-100.5 -378.5q0 -193 97.5 -331t275.5 -138q139 0 221 80t98 228h-297q-178 0 -178 163 q0 166 184 166h412q131 0 173 -68.5t42 -195.5q0 -313 -180 -511t-481 -198q-174 0 -313.5 68t-224.5 182.5t-130 255.5t-45 297z" />
<glyph unicode="H" horiz-adv-x="1390" d="M35 164v1266q0 166 160 165q166 0 165 -165v-457h594v457q0 166 164 165q166 0 166 -165v-1266q0 -164 -166 -164q-164 0 -164 164v479h-594v-479q0 -164 -163 -164q-162 0 -162 164z" />
<glyph unicode="I" horiz-adv-x="417" d="M2 166v1264q0 166 164 165q166 0 166 -165v-1264q0 -166 -166 -166q-164 0 -164 166z" />
<glyph unicode="J" horiz-adv-x="925" d="M16 217q0 168 160 168q45 0 133 -59q41 -29 86 -29q78 0 78 80v1053q0 166 164 165q168 0 168 -165v-1053q0 -184 -113.5 -293t-298.5 -109q-188 0 -319 119q-58 45 -58 123z" />
<glyph unicode="K" horiz-adv-x="1210" d="M31 156v1288q0 152 162 151q166 0 165 -151v-447l498 547q37 47 113 47q66 0 119 -52t53 -118q0 -74 -47 -114l-355 -385l398 -650q41 -43 41 -108q0 -72 -60.5 -119t-105.5 -47q-47 0 -77 18.5t-67 57.5l-368 600l-142 -152v-366q0 -156 -161 -156q-166 0 -166 156z" />
<glyph unicode="L" horiz-adv-x="1040" d="M25 203v1227q0 166 161 165q166 0 166 -165v-1102h514q166 0 166 -162q0 -166 -166 -166h-653q-188 0 -188 203z" />
<glyph unicode="M" horiz-adv-x="1888" d="M49 162q0 29 2 45l189 1171q37 221 213 221q164 0 225 -194l221 -733l225 735q59 188 228 188q86 0 141 -56t70 -163l176 -1196v-8l2 -2v-4q0 -76 -45 -120t-117 -44q-152 0 -172 158l-104 776q-43 -131 -123 -401.5t-117 -387.5q-47 -147 -168 -147q-127 0 -170 147 l-217 793l-131 -778q-27 -160 -168 -160q-160 0 -160 160z" />
<glyph unicode="N" horiz-adv-x="1372" d="M33 168v1249q0 178 162 178q106 0 180 -108l563 -838v778q0 166 162 166q166 0 166 -166v-1249q0 -178 -164 -178q-104 0 -172 96l-570 836v-764q0 -168 -163.5 -168t-163.5 168z" />
<glyph unicode="O" horiz-adv-x="1542" d="M39 813q0 158 44 303.5t128 263t220 188t304 70.5q225 0 390 -123.5t241 -308t76 -399.5q0 -158 -45 -304.5t-130 -263t-223.5 -187t-308.5 -70.5q-168 0 -303 70.5t-219 189t-129 265t-45 306.5zM375 817q0 -209 96 -359.5t268 -150.5q176 0 271.5 145.5t95.5 350.5 q0 207 -97.5 355.5t-273.5 148.5q-172 0 -266 -144.5t-94 -345.5z" />
<glyph unicode="P" horiz-adv-x="1251" d="M27 166v1257q0 170 172 170h428q236 0 387 -146.5t151 -377.5q0 -221 -151.5 -369.5t-374.5 -148.5h-285v-385q0 -166 -163.5 -166t-163.5 166zM354 879h277q92 0 146 52t54 140q0 92 -60 143.5t-171 51.5h-246v-387z" />
<glyph unicode="Q" horiz-adv-x="1564" d="M39 813q0 158 45 303.5t129 263t220 188t304 70.5q170 0 307.5 -71.5t222.5 -189t130 -265t45 -305.5q0 -244 -101 -449l50 -39l34 -40q49 -49 50 -115q0 -68 -43 -115t-119 -47q-63 0 -109 45l-67 72q-174 -137 -400 -137q-221 0 -384 122.5t-238.5 308t-75.5 400.5z M377 817q0 -207 96 -358.5t268 -151.5q98 0 170 41l-131 129q-53 53 -53 123q0 74 43 121t104 47q49 0 91 -33q25 -20 75 -75.5t56 -59.5q12 51 12 203q0 207 -96.5 355.5t-272.5 148.5q-172 0 -267 -144.5t-95 -345.5z" />
<glyph unicode="R" horiz-adv-x="1269" d="M25 180v1243q0 170 202 170h408q246 0 390 -141t144 -336q0 -121 -60 -231.5t-181 -188.5l198 -434q27 -66 27 -106q0 -72 -39 -115t-117 -43q-102 0 -149 90l-258 524h-238v-432q0 -180 -162 -180q-165 0 -165 180zM352 938h297q82 0 133.5 54.5t51.5 123.5 q0 61 -47.5 105.5t-137.5 44.5h-297v-328z" />
<glyph unicode="S" horiz-adv-x="1114" d="M25 250q0 158 159 158q61 0 121 -35q90 -57 193 -58q90 0 150.5 46.5t60.5 130.5q0 51 -48.5 93t-171.5 99q-82 39 -129 62.5t-117.5 70.5t-108.5 93t-67.5 115t-29.5 149q0 180 137 322t346 142q201 0 357 -118q92 -68 92 -160q0 -66 -47.5 -119t-115 -53t-128.5 51 q-80 59 -160 59q-137 0 -137 -116q0 -29 12.5 -51.5t42 -43t52 -33t71.5 -33t74 -32.5q106 -51 172.5 -93t129 -99.5t92.5 -129t30 -163.5q0 -244 -158 -386.5t-401 -142.5q-207 0 -379 113q-94 62 -94 162z" />
<glyph unicode="T" horiz-adv-x="1077" d="M25 1427q0 166 170 166h702q166 0 166 -166q0 -162 -166 -161h-188v-1092q0 -174 -160 -174q-168 0 -168 174v1092h-186q-170 -1 -170 161z" />
<glyph unicode="U" horiz-adv-x="1402" d="M35 635v782q0 176 172 176q170 0 170 -176v-768q0 -328 301 -327q131 0 203.5 73.5t72.5 253.5v768q0 176 172 176t172 -176v-782q0 -178 -51 -308t-141 -205t-201.5 -110t-245.5 -35q-283 0 -453.5 157t-170.5 501z" />
<glyph unicode="V" horiz-adv-x="1353" d="M35 1434q0 164 164 163q123 0 163 -120l304 -904q51 147 149 454.5t148 447.5q43 121 155 120q63 0 120.5 -53t57.5 -119q0 -31 -14 -59l-420 -1184q-63 -180 -198 -180q-125 0 -185 164l-434 1204q-10 37 -10 66z" />
<glyph unicode="W" horiz-adv-x="1882" d="M49 1430q0 76 49 120.5t117 44.5q139 0 168 -149l145 -793q37 127 95.5 404.5t91.5 396.5q41 141 192.5 141t188.5 -141l200 -788l119 778q25 156 170 155q70 0 120 -48t50 -121v-13q0 -12 -4 -24l-223 -1221q-14 -76 -73.5 -124t-137.5 -48q-70 0 -126 39t-79 119 l-211 764l-184 -736q-23 -92 -84.5 -141t-130.5 -49q-76 0 -137.5 52t-75.5 134z" />
<glyph unicode="X" horiz-adv-x="1359" d="M35 147q0 59 35 117l387 600l-334 467q-33 47 -33 103q0 70 48 114.5t114 44.5q86 0 139 -71l262 -365l232 356q49 80 139 80q63 0 112.5 -48t49.5 -115q0 -49 -31 -97l-303 -446l405 -621q41 -63 41 -121q0 -147 -147 -147q-88 0 -152 82l-344 504l-319 -500 q-53 -86 -154 -86q-147 -1 -147 149z" />
<glyph unicode="Y" horiz-adv-x="1157" d="M27 1434q0 162 157 161q100 0 140 -88l251 -559q39 66 121 280t121 279q53 88 150 88q158 0 157 -155q0 -49 -24 -90l-367 -705v-469q0 -176 -166 -176t-166 176v473q-55 100 -172.5 343t-175.5 345q-26 50 -26 97z" />
<glyph unicode="Z" horiz-adv-x="1224" d="M31 174q0 66 35 125l641 967h-484q-166 0 -166 161q0 166 166 166h762q98 0 144.5 -43t46.5 -112q0 -61 -54 -146l-641 -964h551q168 0 168 -160q0 -168 -168 -168h-842q-159 0 -159 174z" />
<glyph unicode="[" horiz-adv-x="516" d="M12 68v1314q0 180 166 181h133q152 0 152 -156q0 -141 -135 -145v-1078q135 -6 135 -143q0 -156 -152 -156h-133q-166 1 -166 183z" />
<glyph unicode="\" horiz-adv-x="954" d="M31 1411q0 72 46 111t113 39q66 0 95.5 -30t58.5 -99l494 -1248q12 -29 12 -49q0 -61 -43 -104t-109 -43q-115 0 -161 116l-494 1246q-12 34 -12 61z" />
<glyph unicode="]" horiz-adv-x="516" d="M12 45q0 139 133 139v1063q-133 4 -133 148q0 154 150 153h135q166 0 166 -178v-1302q0 -182 -166 -183h-135q-150 0 -150 160z" />
<glyph unicode="^" d="M102 639q0 57 29 98l406 721q53 90 155 90q104 0 156 -94l391 -719q25 -55 25 -96q0 -76 -43 -115t-115 -39q-57 0 -94 29t-72 92l-252 473l-262 -475q-39 -68 -68.5 -93.5t-93.5 -25.5q-68 0 -115 40t-47 114z" />
<glyph unicode="_" horiz-adv-x="1257" d="M14 -164q0 152 160 152h909q162 0 162 -154q0 -147 -162 -147h-909q-160 -1 -160 149z" />
<glyph unicode="`" horiz-adv-x="522" d="M10 1096q0 43 17 71l120 283q45 104 154 104q74 0 120 -40.5t46 -116.5q0 -25 -14 -60l-119 -274q-16 -35 -30.5 -56.5t-46.5 -42t-75 -20.5q-76 0 -124 43t-48 109z" />
<glyph unicode="a" horiz-adv-x="1146" d="M41 317q0 147 114.5 262t301.5 115q176 0 293 -84v101q0 86 -78 140t-172 54q-43 0 -117 -13t-109 -13q-152 0 -151 129q0 86 106 129q135 55 283 55q217 0 367.5 -108.5t150.5 -327.5v-613q0 -66 -44 -111.5t-116 -45.5q-37 0 -81 27.5t-48 82.5v39q-141 -150 -333 -149 q-168 0 -267.5 98t-99.5 233zM362 358.5q0 -47.5 46.5 -73t107.5 -25.5q76 0 133.5 28.5t57.5 80.5q0 37 -53.5 60.5t-118.5 23.5q-72 0 -122.5 -23.5t-50.5 -71z" />
<glyph unicode="b" horiz-adv-x="1173" d="M41 145v1368q0 162 156 162q160 0 159 -162v-473q119 166 308 166q166 0 291.5 -162.5t125.5 -447.5q0 -246 -146.5 -431t-322.5 -185q-86 0 -165.5 50t-118.5 142v-66q0 -59 -45 -91.5t-88 -32.5q-154 -1 -154 163zM362 600q0 -127 54.5 -219t158.5 -92q94 0 138.5 90 t44.5 213q0 125 -45 223t-138 98q-102 0 -157.5 -95t-55.5 -218z" />
<glyph unicode="c" horiz-adv-x="1087" d="M37 598q0 266 167 435t404 169q150 0 254 -47q51 -25 84 -64.5t33 -84.5q0 -70 -41 -110t-109 -40q-29 0 -103.5 17.5t-115.5 17.5q-109 0 -181.5 -83t-72.5 -218q0 -123 76 -210t182 -87q88 0 154 45q31 23 74 22q55 0 101 -44t46 -105q0 -78 -84 -141 q-133 -88 -293 -88q-244 0 -409.5 177t-165.5 439z" />
<glyph unicode="d" horiz-adv-x="1187" d="M39 590q0 270 131 444t305 174q80 0 159 -40t124 -115v460q0 164 162 164q158 0 157 -164v-1388q0 -152 -157 -152q-143 0 -144 146v47q-123 -188 -303 -189q-170 0 -302 174.5t-132 438.5zM360 588q0 -125 50.5 -215t142.5 -90q82 0 146.5 86t64.5 227t-61.5 228 t-143.5 87q-92 0 -145.5 -98t-53.5 -225z" />
<glyph unicode="e" horiz-adv-x="1185" d="M41 602q0 248 143.5 428t387 180t377.5 -143t134 -385q0 -47 -13 -77t-29.5 -46t-55.5 -24.5t-66.5 -9.5t-89.5 -1h-469q0 -123 91.5 -185.5t179.5 -62.5q86 0 184 63.5t148 63.5q51 0 83.5 -33.5t32.5 -101.5q0 -57 -35 -94q-158 -197 -442 -197q-260 0 -410.5 180.5 t-150.5 444.5zM377 737h379q0 92 -53.5 143.5t-127.5 51.5q-78 0 -138 -52.5t-60 -142.5z" />
<glyph unicode="f" horiz-adv-x="729" d="M23 1030q0 78 39.5 109.5t123.5 31.5v140q8 160 127 254t269 94q172 0 172 -156q0 -68 -41 -99.5t-90.5 -31.5t-82 -38t-32.5 -89v-74q2 0 6 1.5t8 1.5q88 0 128 -32t40 -108q0 -78 -40 -110.5t-128 -32.5h-24v-733q0 -158 -156 -158q-158 0 -158 158v735 q-82 2 -121.5 32.5t-39.5 104.5z" />
<glyph unicode="g" horiz-adv-x="1193" d="M39 590q0 270 131 444t305 174q80 0 159 -40t124 -115v-11q0 164 162 164q158 0 157 -164v-884q0 -309 -157.5 -484.5t-389.5 -175.5q-178 0 -346 105q-78 51 -78 143q0 68 43.5 116t114.5 48q35 0 113 -39q84 -45 174 -45q129 0 177 91t48 269q-106 -188 -303 -188 q-172 0 -303 165t-131 427zM360 588q0 -125 50.5 -215t142.5 -90q82 0 146.5 86t64.5 227t-61.5 228t-143.5 87q-92 0 -145.5 -98t-53.5 -225z" />
<glyph unicode="h" horiz-adv-x="1067" d="M37 158v1335q0 164 153 164q160 0 160 -164v-449q129 147 285 148q137 0 241.5 -99.5t104.5 -306.5v-628q0 -158 -160 -158q-158 0 -157 158v571q0 86 -45.5 134t-106.5 48q-66 0 -114 -48t-48 -134v-571q0 -158 -160 -158q-153 0 -153 158z" />
<glyph unicode="i" horiz-adv-x="528" d="M39 1480.5q0 75.5 53 129t129 53.5q78 0 131.5 -52t53.5 -130t-53.5 -130.5t-131.5 -52.5q-76 0 -129 53.5t-53 129zM68 160v858q0 158 157 158q162 0 162 -158v-858q0 -160 -159.5 -160t-159.5 160z" />
<glyph unicode="j" horiz-adv-x="489" d="M-223 -274q0 -156 172 -156q150 0 268.5 94t126.5 254l2 1112q0 158 -158 158q-150 0 -165 -158v-1046q0 -51 -33 -89t-82 -38t-90 -31.5t-41 -99.5zM8 1480.5q0 75.5 53.5 129t128.5 53.5q78 0 131.5 -53.5t53.5 -129t-53.5 -129t-131.5 -53.5q-76 0 -129 53.5t-53 129z " />
<glyph unicode="k" horiz-adv-x="1159" d="M35 158v1337q0 160 155 160q158 0 158 -160v-688l400 338q47 39 106 39q63 0 112.5 -50.5t49.5 -113.5q0 -68 -66 -117l-223 -186q88 -162 159.5 -277.5t98.5 -149.5t39 -62.5t12 -71.5q0 -70 -36.5 -115t-112.5 -45q-43 0 -86 23.5t-66 58.5l-256 452 q-117 -94 -131 -110v-262q0 -158 -158 -158q-155 0 -155 158z" />
<glyph unicode="l" horiz-adv-x="450" d="M6 160v1337q0 162 158 162q160 0 160 -162v-1337q0 -160 -158 -160q-160 0 -160 160z" />
<glyph unicode="m" horiz-adv-x="1726" d="M37 158v864q0 70 40 117t113 47q76 0 118 -44t42 -98q55 63 145.5 105.5t180.5 42.5q186 0 264 -174q49 78 138 124t188 46q143 0 243.5 -100.5t100.5 -301.5v-628q0 -158 -160 -158q-158 0 -158 158v571q0 86 -45 134t-106 48q-59 0 -105.5 -38.5t-54.5 -108.5v-606 q0 -158 -160 -158q-158 0 -157 158v571q0 86 -45.5 134t-106.5 48q-66 0 -114 -48t-48 -134v-571q0 -158 -160 -158q-153 0 -153 158z" />
<glyph unicode="n" horiz-adv-x="1069" d="M37 158v864q0 70 40 117t113 47q76 0 118 -44t42 -98q129 147 285 148q137 0 241.5 -99.5t104.5 -306.5v-628q0 -158 -160 -158q-158 0 -157 158v571q0 86 -45.5 134t-106.5 48q-66 0 -114 -48t-48 -134v-571q0 -158 -160 -158q-153 0 -153 158z" />
<glyph unicode="o" horiz-adv-x="1204" d="M41 604q0 252 140.5 426t391.5 174q248 0 390.5 -180t142.5 -432q0 -256 -142.5 -433t-390.5 -177q-250 0 -391 183t-141 439zM365 614q0 -78 20.5 -153.5t70.5 -134t117 -58.5q100 0 154.5 94.5t54.5 217.5q0 125 -54 229t-155 104q-102 0 -155 -88t-53 -211z" />
<glyph unicode="p" horiz-adv-x="1173" d="M41 -254v1296q0 162 156 162q160 0 159 -162q119 164 308 164q166 0 291.5 -162.5t125.5 -447.5q0 -246 -146.5 -431t-322.5 -185q-84 0 -164.5 46t-119.5 124v-443q0 -59 -45 -92t-88 -33q-154 0 -154 164zM362 600q0 -127 54.5 -219t158.5 -92q94 0 138.5 90t44.5 213 q0 125 -45 223t-138 98q-102 0 -157.5 -95t-55.5 -218z" />
<glyph unicode="q" horiz-adv-x="1185" d="M39 590q0 270 131 444t305 174q80 0 159 -40t124 -115v-11q0 164 162 164q158 0 157 -164v-1306q0 -152 -157 -152q-143 0 -144 146v415q-111 -168 -303 -168q-170 0 -302 174.5t-132 438.5zM360 588q0 -125 50.5 -215t142.5 -90q82 0 146.5 86t64.5 227t-61.5 228 t-143.5 87q-92 0 -145.5 -98t-53.5 -225z" />
<glyph unicode="r" horiz-adv-x="911" d="M53 158v866q0 164 158 164q53 0 91 -34t40 -101q27 51 108.5 101t145.5 50q115 0 170 -51t55 -123q0 -66 -46 -113t-116 -47q-45 0 -75 7q-43 6 -47 6q-61 0 -114.5 -45t-53.5 -109v-571q0 -158 -158 -158t-158 158z" />
<glyph unicode="s" horiz-adv-x="1019" d="M49 231q0 66 44 101t104 35q57 0 157.5 -56.5t184.5 -56.5q100 0 100 74q0 37 -42 70.5t-105.5 59t-138 62.5t-138 77t-105.5 106.5t-42 150.5q0 178 129 271.5t323 93.5q190 0 328 -72q82 -45 82 -131q0 -55 -38 -96t-104 -41q-51 0 -149 33.5t-160 33.5q-94 0 -94 -74 q0 -37 60.5 -73.5t145.5 -72.5t171 -81t146.5 -119.5t60.5 -169.5q0 -188 -138.5 -281t-326.5 -93q-195 0 -391 118q-64 45 -64 131z" />
<glyph unicode="t" horiz-adv-x="817" d="M23 1038q0 113 143 131v80q0 156 158 156q160 0 159 -156v-80h88q86 0 125 -28.5t39 -104.5q0 -74 -38 -102.5t-122 -28.5h-92v-487q0 -72 8.5 -99.5t34.5 -27.5q170 0 170 -153.5t-170 -153.5q-207 0 -283.5 107.5t-76.5 326.5v491q-143 14 -143 129z" />
<glyph unicode="u" horiz-adv-x="1114" d="M39 473v547q0 158 156 158q158 0 157 -158l2 -490q0 -238 142 -237q78 0 136 82t58 221v430q0 80 35 121t117 41q158 0 157 -162v-901q0 -152 -157 -152q-47 0 -83 33t-38 96v62q-131 -176 -315 -176q-150 0 -258.5 132t-108.5 353z" />
<glyph unicode="v" horiz-adv-x="1030" d="M35 1040q0 70 45 113t113 43q127 0 165 -145l146 -553l141 559q51 139 168 139q72 0 113 -40t41 -116q0 -39 -13 -63l-295 -862q-41 -115 -165 -115q-117 0 -158 115l-291 866q-10 34 -10 59z" />
<glyph unicode="w" horiz-adv-x="1804" d="M63 1030q0 164 158 164q115 0 164 -119l145 -586l156 578q20 59 66.5 92t101.5 33t109.5 -36t70.5 -95q39 -119 73 -278.5t71 -274.5l137 567q39 121 164 121q84 0 117.5 -39t33.5 -123q0 -37 -14 -73l2 14q-43 -152 -279 -844q-43 -129 -163 -129q-119 0 -164 135 q-37 109 -77 252t-81 264l-149 -520q-39 -133 -175 -133q-131 0 -178 137q-289 862 -289 893z" />
<glyph unicode="x" horiz-adv-x="1120" d="M39 150q0 72 49 135l281 329l-242 314q-37 43 -37 106q0 68 47 113t113 45q94 0 147 -80l146 -252l151 256q53 78 144 78q68 0 114.5 -44t46.5 -112q0 -61 -41 -110l-243 -303l280 -332q51 -63 52 -143q0 -150 -148 -150q-109 0 -166 94l-201 281l-198 -283 q-57 -88 -152 -88q-143 1 -143 146z" />
<glyph unicode="y" horiz-adv-x="1058" d="M37 1034q0 158 153 158q127 0 166 -127l152 -637q27 80 82 323.5t82 323.5q39 119 164 119q158 0 157 -158q0 -45 -10 -73l-453 -1256q-45 -121 -168 -121q-152 0 -151 156q0 37 12 74l109 270l-281 875q-14 36 -14 73z" />
<glyph unicode="z" horiz-adv-x="1071" d="M35 158q0 43 49 114l416 621h-283q-84 0 -122 31.5t-38 109.5q0 158 160 158h557q172 0 172 -148q0 -49 -53 -126l-430 -623h354q82 0 121 -31t39 -104q0 -160 -160 -160h-586q-196 0 -196 158z" />
<glyph unicode="{" horiz-adv-x="776" d="M23 731q0 35 11 60.5t34.5 42t42 25.5t51.5 20q16 0 27.5 26.5t15.5 66.5t6 66.5t2 42.5q0 53 -6 148q0 186 85 252.5t249 66.5q59 0 105 -46t46 -99q0 -141 -170 -141q-10 0 -10 -48q0 -27 3 -73.5t3 -69.5q0 -225 -94 -336q92 -98 92 -340v-83q0 -34 -1 -48t-1 -18 q0 -61 29 -62q150 -8 149 -139q0 -143 -151 -143q-199 0 -270.5 80.5t-71.5 216.5q0 35 4 96t4 92q0 164 -33 197q-49 10 -75.5 19t-51 41t-24.5 87z" />
<glyph unicode="|" horiz-adv-x="358" d="M6 125v1376q0 170 160 170q156 0 156 -170v-1376q0 -158 -158 -158t-158 158z" />
<glyph unicode="}" horiz-adv-x="776" d="M23 45q0 129 147 139q33 0 33 62q0 27 -3 76t-3 73q0 240 94 340q-96 115 -96 336q0 27 5 74t5 69q0 47 -12 48q-170 0 -170 141q0 53 45 99t104 46q164 0 251 -66.5t87 -252.5q-6 -94 -6 -148q0 -182 47 -202l12 -5q61 -18 95 -47.5t34 -95.5q0 -41 -12 -69.5t-38 -43 t-46.5 -21.5t-56.5 -13q-31 -31 -31 -197q0 -37 4 -98.5t4 -89.5q0 -63 -13.5 -110.5t-47 -92.5t-105 -69.5t-178.5 -24.5q-149 0 -149 143z" />
<glyph unicode="~" horiz-adv-x="1253" d="M41 506q0 90 114.5 196.5t225.5 106.5q106 0 270 -88q86 -49 115 -49q2 0 8 10q10 14 17 20q25 33 41 50.5t51 36t75 18.5q156 0 156 -170q0 -88 -124 -192.5t-236 -104.5q-100 0 -240 82q-106 53 -129 53q-12 0 -33 -29q-76 -106 -159 -106q-152 0 -152 166z" />
<glyph unicode="&#xa3;" horiz-adv-x="1388" d="M47 788q0 162 158 162h31q-55 104 -56 205q0 172 145.5 285.5t338.5 113.5q203 0 363.5 -115.5t172.5 -312.5q0 -68 -46 -118t-112 -50q-106 0 -159 125q-10 74 -72.5 115t-140.5 41q-61 0 -104.5 -28.5t-43.5 -82.5q0 -92 47 -178h193q156 0 156 -159q0 -156 -156 -156 h-94q2 -25 2 -68q0 -131 -72 -248h479q158 0 158 -157.5t-158 -157.5h-798q-166 0 -166 156q0 72 86 162q72 76 108.5 136t36.5 130q0 10 -4 47h-135q-158 -1 -158 153z" />
<glyph unicode="&#xa4;" horiz-adv-x="1658" d="M121 162q0 88 88 157l151 109q-20 72 -20 133q0 66 27 144l-158 112q-88 74 -88 160q0 68 46 104.5t105.5 36.5t124.5 -53l158 -133q121 70 219 69q113 0 215 -65l150 129q61 53 129 53q59 0 106 -37t47 -104q0 -98 -88 -160l-151 -121q41 -43 41 -164q0 -70 -25 -118 l133 -92q90 -70 90 -160q0 -68 -47 -105t-106 -37q-66 0 -127 54l-119 102q-123 -88 -250 -88q-129 0 -246 94q-10 -8 -57 -50t-66 -54q-66 -57 -131 -58q-59 0 -105 37t-46 105zM627 553q0 -88 45 -138t108.5 -50t109.5 49t46 139q0 80 -48 127t-112 47q-61 0 -105 -44 t-44 -130z" />
<glyph unicode="&#xa5;" horiz-adv-x="1157" d="M-6 406q0 160 158 159h249v82h-249q-158 0 -158 160q0 156 158 156h116l-215 374q-27 49 -26 97q0 162 157 161q100 0 140 -88l245 -544h15q37 66 115.5 272.5t117.5 271.5q53 88 150 88q158 0 157 -155q0 -49 -24 -90l-230 -387h140q156 0 155 -160q0 -156 -155 -156 h-277v-82h277q156 0 155 -157q0 -160 -155 -160h-277v-72q0 -176 -166 -176t-166 176v72h-249q-158 0 -158 158z" />
<glyph unicode="&#xa6;" horiz-adv-x="358" d="M6 158v506q0 80 44 128t114 48q72 0 115 -40t43 -118v-524q0 -158 -158 -158t-158 158zM6 1067v446q0 80 45 128.5t113 48.5q70 0 114 -42t44 -118v-463q0 -158 -158 -158t-158 158z" />
<glyph unicode="&#xa7;" horiz-adv-x="1087" d="M2 745q0 92 50 142.5t118 50.5q57 0 95 -34t58.5 -79t76 -99t139.5 -85q57 -20 77.5 -28.5t71.5 -31t72.5 -38t57.5 -44t51.5 -56t27.5 -67.5t12 -87q0 -193 -131 -293t-325 -100q-174 0 -326 79q-82 43 -82 146q0 72 46 115t110 43q37 0 86 -23q55 -35 172 -35 q119 0 119 49q0 27 -90.5 73t-198 93t-197.5 131t-90 178zM23 1303q0 193 132 294t324 101q178 0 328 -82q82 -45 82 -146q0 -72 -47 -114.5t-111 -42.5q-37 0 -86 22q-55 37 -172 37t-117 -51q0 -27 90.5 -71t197 -90t196.5 -131t90 -183q0 -92 -49.5 -142.5t-116.5 -50.5 q-49 0 -78 19.5t-47 53.5t-39.5 71t-75 81t-133.5 74q-76 25 -132 51.5t-114.5 67.5t-90 99.5t-31.5 132.5z" />
<glyph unicode="&#xa8;" horiz-adv-x="997" d="M25 1276q0 78 53 130t131 52q76 0 129 -53t53 -129t-53 -129t-129 -53q-78 0 -131 52t-53 130zM535 1276q0 76 52 129t128 53q78 0 130 -52t52 -130t-52 -130t-130 -52q-76 0 -128 53t-52 129z" />
<glyph unicode="&#xa9;" horiz-adv-x="1832" d="M61 756q0 340 219.5 559t561.5 219q344 0 560 -221t216 -563q0 -338 -218 -556.5t-562 -218.5q-342 0 -559.5 220.5t-217.5 560.5zM270 760q0 -258 161 -427t417 -169q254 0 412.5 166t158.5 420q0 258 -161.5 430t-415.5 172t-413 -168t-159 -424zM395 760 q0 211 136.5 350t322.5 139q86 0 197 -49q43 -18 70.5 -55t27.5 -76q0 -57 -40 -100t-97 -43q-29 0 -47 14q-68 23 -117 23q-76 0 -123 -57.5t-47 -155.5q0 -78 45 -138.5t113 -60.5q41 0 82 14q6 2 10 6q12 2 28.5 6.5t25.5 6.5t15 2q137 0 138 -135q0 -66 -62 -119 q-80 -63 -221 -64q-205 0 -331 143.5t-126 348.5z" />
<glyph unicode="&#xab;" horiz-adv-x="1185" d="M27 590q0 43 39 108l174 295q45 68 120 68q61 0 112.5 -48t51.5 -110q0 -39 -24 -80l-146 -233l162 -283q12 -25 12 -49q0 -51 -53 -96t-113 -45q-84 0 -122 65l-177 299q-36 60 -36 109zM516 590q0 45 33 106l184 301q45 61 123 62q164 0 164 -148q0 -49 -29 -92 l-147 -229l162 -279q14 -25 14 -53q0 -51 -53.5 -96t-112.5 -45q-86 0 -121 65l-184 299q-33 62 -33 109z" />
<glyph unicode="&#xac;" horiz-adv-x="1380" d="M47 594q0 68 46 116t122 48h844q168 0 168 -178v-271q0 -170 -156 -170q-68 0 -116 47t-48 123v127h-692q-168 0 -168 158z" />
<glyph unicode="&#xad;" horiz-adv-x="0" />
<glyph unicode="&#xae;" horiz-adv-x="1830" d="M61 772q0 338 219.5 557t559.5 219t558 -221t218 -559q0 -340 -216 -558t-560 -218q-340 0 -559.5 221t-219.5 559zM264 772q0 -256 165 -427t423 -171q254 0 409.5 163t155.5 429q0 258 -159.5 427t-417.5 169q-256 0 -416 -168t-160 -422zM498 440v650q0 102 69 135 q37 18 84 18h252q135 0 234 -88q94 -90 94 -217q0 -164 -148 -240l47 -69q92 -137 93 -193q0 -68 -42 -102.5t-112 -34.5q-94 0 -145 104l-142 248v-211q0 -141 -145 -141q-139 0 -139 141zM780 860h109q41 0 65.5 21.5t24.5 50.5t-23.5 48t-66.5 19h-109v-139z" />
<glyph unicode="&#xb0;" horiz-adv-x="622" d="M16 1370q0 113 73 192.5t200 79.5q121 0 197.5 -78.5t76.5 -195.5t-80 -195.5t-194 -78.5q-119 0 -196 78.5t-77 197.5zM154 1368q0 -59 38.5 -98t96.5 -39q59 0 98 40t39 97t-39 97t-98 40q-63 0 -99 -40t-36 -97z" />
<glyph unicode="&#xb1;" d="M102 852q0 162 166 162h242v96q0 164 162 164q74 0 120 -42t46 -116v-102h241q84 0 133.5 -47t49.5 -119q0 -84 -45.5 -122t-137.5 -38h-241v-115q0 -72 -48.5 -115.5t-119.5 -43.5q-160 0 -160 159v115h-242q-166 0 -166 164zM106 160q0 68 47.5 113.5t122.5 45.5h816 q170 0 170 -157q0 -160 -170 -160h-816q-170 0 -170 158z" />
<glyph unicode="&#xb2;" horiz-adv-x="638" d="M20 1368q0 104 73 169t169 65q92 0 164 -60.5t72 -155.5q0 -100 -76 -202l-158 -209h164q78 0 78 -80t-78 -80h-303q-96 0 -96 78q0 29 22 61l250 336q31 41 31 88q0 29 -22.5 45.5t-51.5 16.5q-31 0 -51.5 -19.5t-20.5 -56.5q0 -31 -22.5 -60.5t-59.5 -29.5 q-39 0 -61.5 29.5t-22.5 64.5z" />
<glyph unicode="&#xb3;" horiz-adv-x="612" d="M23 1001q0 39 22.5 60.5t52.5 21.5q55 0 78 -51q25 -59 76 -59q35 0 60.5 22.5t25.5 61.5q0 35 -17.5 64.5t-50.5 35.5h-32q-88 0 -88 70q0 68 88 67q18 0 28 2q20 6 32.5 34t12.5 54q0 68 -63 68q-55 0 -68 -51q0 -16 -15 -35.5t-48 -19.5q-84 0 -84 73q0 76 63.5 134.5 t155.5 58.5q98 0 160.5 -65.5t62.5 -149.5q0 -100 -90 -160q117 -63 117 -190q0 -92 -68.5 -165t-179.5 -73q-125 0 -201 102q-30 39 -30 90z" />
<glyph unicode="&#xb5;" horiz-adv-x="1101" d="M35 -270v1304q0 160 158 160q160 0 159 -160v-598q0 -55 38 -92t93 -37q80 0 129.5 59.5t49.5 145.5v522q0 160 161 160q160 0 160 -160v-864q0 -170 -160 -170q-47 0 -85 30.5t-40 88.5q-20 -59 -71.5 -92t-118.5 -33q-53 0 -95 33.5t-61 85.5v-383q0 -160 -162 -160 q-155 0 -155 160z" />
<glyph unicode="&#xb6;" horiz-adv-x="1171" d="M20 1112q0 213 144.5 328.5t413.5 115.5h479q61 -4 104 -48t43 -103q0 -61 -43 -105.5t-104 -46.5v-1122q0 -61 -37 -97t-88 -36q-49 0 -87 36t-38 101v1122h-158v-1116q0 -68 -37 -106.5t-88 -38.5q-53 0 -92 41t-39 117v577q-166 25 -269.5 129.5t-103.5 251.5z" />
<glyph unicode="&#xb7;" horiz-adv-x="428" d="M8 729q0 76 53.5 129t128.5 53q78 0 131.5 -53t53.5 -129t-53.5 -129t-131.5 -53q-76 0 -129 53t-53 129z" />
<glyph unicode="&#xbb;" horiz-adv-x="1075" d="M27 250q0 33 22 65l162 275l-164 274l2 -6q-23 33 -22 70q0 49 51 94t112 45q86 0 129 -74l175 -295q39 -68 38 -108q0 -57 -36 -111l-177 -295q-37 -66 -126 -65q-166 0 -166 131zM518 248q0 45 27 71l153 273q-10 16 -151 231q-29 45 -29 99q0 145 156 145 q96 0 133 -72l184 -297q35 -59 35 -108q0 -53 -35 -111l-184 -297q-39 -63 -131 -63q-158 0 -158 129z" />
<glyph unicode="&#xbd;" horiz-adv-x="2013" d="M4 1438q0 96 102 123l226 61q82 0 106 -72q12 -14 13 -94v-858q0 -55 -34 -91t-89.5 -36t-89 36t-33.5 91v745q-51 -18 -84 -18q-49 0 -83 32t-34 81zM436 125q0 31 13 63l491 1297q51 104 143 104q53 0 91 -39t38 -102q0 -39 -18 -86l-516 -1276q-43 -92 -123 -92 q-47 0 -83 37t-36 94zM1171 831q0 156 109 253.5t252 97.5q139 0 245.5 -92.5t106.5 -233.5q0 -150 -110 -301l-240 -315h248q117 0 116 -119q0 -121 -118 -121h-455q-141 0 -141 119q0 45 33 90l372 506q47 59 47 131q0 43 -32.5 67.5t-75.5 24.5q-45 0 -78 -29.5 t-33 -83.5q0 -49 -31.5 -92t-89 -43t-91.5 44t-34 97z" />
<glyph unicode="&#x192;" horiz-adv-x="768" d="M-68 -274q0 68 41 99.5t90.5 31.5t85 38.5t35.5 88.5v909q-82 2 -121.5 32.5t-39.5 104.5q0 78 39.5 109.5t123.5 31.5v140q8 160 127 254t269 94q172 0 172 -156q0 -68 -41 -99.5t-90.5 -31.5t-82 -38t-32.5 -89v-74q2 0 6 1.5t8 1.5q88 0 128 -32t40 -108 q0 -78 -40 -110.5t-128 -32.5h-24v-973q-8 -160 -126 -254t-268 -94q-172 0 -172 156z" />
<glyph unicode="&#x384;" horiz-adv-x="704" d="M14 1116q0 43 19 72l119 278q45 106 149 107q154 0 154 -156q0 -27 -13 -59l-123 -277q-14 -37 -26 -57t-43 -40.5t-76 -20.5q-80 0 -120 41.5t-40 111.5z" />
<glyph unicode="&#x385;" horiz-adv-x="1316" d="M35 1276q0 78 52 130t130 52q76 0 128 -53t52 -129t-52 -129t-128 -53q-78 0 -130 52t-52 130zM461 1243q0 43 18 72l-2 -6l121 286q47 106 154 107q76 0 116.5 -42t40.5 -116q0 -10 -7 -34.5t-7 -26.5l-123 -275q-14 -35 -27.5 -56.5t-45 -41.5t-74.5 -20 q-78 0 -121 42.5t-43 110.5zM887 1276q0 78 53 130t131 52q76 0 129 -53t53 -129t-53 -129t-129 -53q-78 0 -131 52t-53 130z" />
<glyph unicode="&#x386;" horiz-adv-x="1421" d="M4 1116q0 43 19 72l118 278q45 106 150 107q154 0 153 -156q0 -27 -12 -59l-123 -277q-14 -37 -26.5 -57t-43 -40.5t-75.5 -20.5q-80 0 -120 41.5t-40 111.5zM170 162q0 27 12 67l430 1217q53 145 198.5 145t199.5 -145q457 -1247 456 -1286q0 -72 -42 -116t-117 -44 q-117 0 -158 104l-72 185h-522q-10 -29 -28.5 -80t-26.5 -74q-45 -135 -174 -135q-78 0 -117 46t-39 116zM664 621h290l-143 405z" />
<glyph unicode="&#x388;" horiz-adv-x="1576" d="M-16 1116q0 43 18 72l119 278q45 106 149 107q154 0 154 -156q0 -27 -12 -59l-123 -277q-14 -37 -26.5 -57t-43.5 -40.5t-76 -20.5q-80 0 -119.5 41.5t-39.5 111.5zM565 180v1233q0 178 172 178h578q164 0 164 -163.5t-164 -163.5h-422v-277h330q164 0 163 -166 q0 -162 -163 -162h-330v-331h436q176 0 176 -164t-176 -164h-592q-111 0 -141.5 34.5t-30.5 145.5z" />
<glyph unicode="&#x389;" horiz-adv-x="1929" d="M4 1116q0 43 19 72l118 278q45 106 150 107q154 0 153 -156q0 -27 -12 -59l-123 -277q-14 -37 -26.5 -57t-43 -40.5t-75.5 -20.5q-80 0 -120 41.5t-40 111.5zM600 164v1266q0 166 160 165q166 0 166 -165v-457h594v457q0 166 163 165q166 0 166 -165v-1266 q0 -164 -166 -164q-164 0 -163 164v479h-594v-479q0 -164 -164 -164q-162 0 -162 164z" />
<glyph unicode="&#x38a;" horiz-adv-x="952" d="M-16 1116q0 43 18 72l119 278q45 106 149 107q154 0 154 -156q0 -27 -12 -59l-123 -277q-14 -37 -26.5 -57t-43.5 -40.5t-76 -20.5q-80 0 -119.5 41.5t-39.5 111.5zM545 166v1264q0 166 164 165q166 0 165 -165v-1264q0 -166 -165 -166q-164 0 -164 166z" />
<glyph unicode="&#x38c;" horiz-adv-x="1863" d="M-8 1116q0 43 18 72l119 278q45 106 150 107q154 0 153 -156q0 -27 -12 -59l-123 -277q-14 -37 -26.5 -57t-43 -40.5t-75.5 -20.5q-80 0 -120 41.5t-40 111.5zM389 813q0 158 44 303.5t128 263t220.5 188t303.5 70.5q225 0 390 -123.5t241 -308t76 -399.5 q0 -158 -45 -304.5t-130 -263t-223.5 -187t-308.5 -70.5q-168 0 -303 70.5t-219 189t-129 265t-45 306.5zM725 817q0 -209 96.5 -359.5t268.5 -150.5q176 0 271 145.5t95 350.5q0 207 -97 355.5t-274 148.5q-172 0 -266 -144.5t-94 -345.5z" />
<glyph unicode="&#x38e;" horiz-adv-x="1746" d="M-4 1116q0 43 18 72l119 278q45 106 150 107q154 0 153 -156q0 -27 -12 -59l-123 -277q-14 -37 -26.5 -57t-43 -40.5t-75.5 -20.5q-80 0 -120 41.5t-40 111.5zM549 1434q0 162 158 161q100 0 139 -88l252 -559q39 66 120.5 280t120.5 279q53 88 150 88q158 0 158 -155 q0 -49 -25 -90l-367 -705v-469q0 -176 -165.5 -176t-165.5 176v473q-55 100 -173 343t-176 345q-26 50 -26 97z" />
<glyph unicode="&#x38f;" horiz-adv-x="1849" d="M4 1116q0 43 19 72l118 278q45 106 150 107q154 0 153 -156q0 -27 -12 -59l-123 -277q-14 -37 -26.5 -57t-43 -40.5t-75.5 -20.5q-80 0 -120 41.5t-40 111.5zM524 1040q0 242 166 420t461 178q301 0 470 -178t169 -419.5t-168 -416.5t-471 -175q-201 0 -346.5 87 t-213 218.5t-67.5 285.5zM537 164q0 164 159 164h920q160 0 160 -164t-160 -164h-920q-159 0 -159 164zM852 1040.5q0 -110.5 80 -189.5t225.5 -79t226 79t80.5 187q0 111 -83 194t-226 83t-223 -82t-80 -192.5z" />
<glyph unicode="&#x390;" horiz-adv-x="552" d="M-346 1507.5q0 77.5 52 130t130 52.5q76 0 128 -53.5t52 -129t-52 -129t-128 -53.5q-78 0 -130 52.5t-52 130zM78 158q0 -158 160 -158q164 0 163 158v886q0 160 -163 160q-160 0 -160 -160v-886zM80 1475q0 45 18 71l-2 -6l121 287q47 106 154 106q76 0 116.5 -42 t40.5 -115q0 -10 -7 -35t-7 -27l-123 -274q-14 -35 -27.5 -56.5t-45 -42t-74.5 -20.5q-78 0 -121 43t-43 111zM506 1507.5q0 77.5 53 130t131 52.5q76 0 129 -53.5t53 -129t-53 -129t-129 -53.5q-78 0 -131 52.5t-53 130z" />
<glyph unicode="&#x391;" horiz-adv-x="1392" d="M35 162q0 27 12 67l430 1217q53 145 198.5 145t198.5 -145q457 -1247 457 -1286q0 -72 -42 -116t-118 -44q-117 0 -157 104l-72 185h-522q-10 -29 -28.5 -80t-26.5 -74q-45 -135 -175 -135q-78 0 -116.5 46t-38.5 116zM528 621h291l-143 405z" />
<glyph unicode="&#x392;" horiz-adv-x="1107" d="M27 186v1221q0 184 172 184h290q61 0 127 -14t133.5 -47t121 -81t86 -122t32.5 -164q0 -80 -64.5 -174t-129.5 -102q123 -18 213 -144.5t90 -255.5q0 -211 -146.5 -349t-349.5 -138h-371q-96 0 -137 31q-67 46 -67 155zM356 328h228q90 0 141 51t51 123q0 82 -67.5 143.5 t-190.5 61.5h-162v-379zM356 963h158q78 0 120 42t42 101q0 63 -47 110.5t-131 47.5h-142v-301z" />
<glyph unicode="&#x393;" horiz-adv-x="1009" d="M23 166v1243q0 184 172 184h596q76 0 123 -49t47 -117q0 -162 -170 -161h-439v-1100q0 -166 -168 -166q-161 0 -161 166z" />
<glyph unicode="&#x394;" horiz-adv-x="1429" d="M37 141q0 31 14 74l-2 -6l455 1239q53 150 194 149q154 0 199 -147l471 -1239q12 -39 12 -72q0 -139 -209 -139h-952q-182 0 -182 141zM449 340h514l-265 692z" />
<glyph unicode="&#x395;" horiz-adv-x="993" d="M23 180v1233q0 178 172 178h577q164 0 164 -163.5t-164 -163.5h-422v-277h330q164 0 164 -166q0 -162 -164 -162h-330v-331h436q176 0 176.5 -164t-176.5 -164h-591q-111 0 -141.5 34.5t-30.5 145.5z" />
<glyph unicode="&#x396;" horiz-adv-x="1224" d="M31 174q0 66 35 125l641 967h-484q-166 0 -166 161q0 166 166 166h762q98 0 144.5 -43t46.5 -112q0 -61 -54 -146l-641 -964h551q168 0 168 -160q0 -168 -168 -168h-842q-159 0 -159 174z" />
<glyph unicode="&#x397;" horiz-adv-x="1390" d="M35 164v1266q0 166 160 165q166 0 165 -165v-457h594v457q0 166 164 165q166 0 166 -165v-1266q0 -164 -166 -164q-164 0 -164 164v479h-594v-479q0 -164 -163 -164q-162 0 -162 164z" />
<glyph unicode="&#x398;" horiz-adv-x="1540" d="M39 813q0 158 44 303.5t128 263t220 188t304 70.5q225 0 390 -123.5t241 -308t76 -399.5q0 -158 -45 -304.5t-130 -263t-223.5 -187t-308.5 -70.5q-168 0 -303 70.5t-219 189t-129 265t-45 306.5zM377 817q0 -209 96 -359.5t268 -150.5q174 0 270.5 145.5t96.5 350.5 q0 207 -97.5 355.5t-273.5 148.5q-172 0 -266 -144.5t-94 -345.5zM516 815q0 166 166 166h135q166 0 166 -168q0 -164 -166 -164h-135q-166 0 -166 166z" />
<glyph unicode="&#x399;" horiz-adv-x="417" d="M2 166v1264q0 166 164 165q166 0 166 -165v-1264q0 -166 -166 -166q-164 0 -164 166z" />
<glyph unicode="&#x39a;" horiz-adv-x="1210" d="M31 156v1288q0 152 162 151q166 0 165 -151v-447l498 547q37 47 113 47q66 0 119 -52t53 -118q0 -74 -47 -114l-355 -385l398 -650q41 -43 41 -108q0 -72 -60.5 -119t-105.5 -47q-47 0 -77 18.5t-67 57.5l-368 600l-142 -152v-366q0 -156 -161 -156q-166 0 -166 156z" />
<glyph unicode="&#x39b;" horiz-adv-x="1415" d="M37 156q0 18 8 51l449 1241q55 150 198 149q150 0 195 -149l461 -1217q16 -49 16 -75q0 -74 -46 -115t-118 -41q-70 0 -105.5 31.5t-64.5 105.5l-336 893l-332 -909q-43 -121 -157 -121q-68 0 -118 44t-50 112z" />
<glyph unicode="&#x39c;" horiz-adv-x="1888" d="M49 162q0 29 2 45l189 1171q37 221 213 221q164 0 225 -194l221 -733l225 735q59 188 228 188q86 0 141 -56t70 -163l176 -1196v-8l2 -2v-4q0 -76 -45 -120t-117 -44q-152 0 -172 158l-104 776q-43 -131 -123 -401.5t-117 -387.5q-47 -147 -168 -147q-127 0 -170 147 l-217 793l-131 -778q-27 -160 -168 -160q-160 0 -160 160z" />
<glyph unicode="&#x39d;" horiz-adv-x="1372" d="M33 168v1249q0 178 162 178q106 0 180 -108l563 -838v778q0 166 162 166q166 0 166 -166v-1249q0 -178 -164 -178q-104 0 -172 96l-570 836v-764q0 -168 -163.5 -168t-163.5 168z" />
<glyph unicode="&#x39e;" horiz-adv-x="1331" d="M25 168q0 166 178 166h874q174 0 174 -166q0 -164 -174 -164h-874q-178 0 -178 164zM53 1427q0 166 164 166h842q166 0 166 -166q0 -162 -166 -161h-842q-164 -1 -164 161zM186 825q0 162 164 162h561q166 0 166 -166q0 -162 -166 -162h-561q-164 0 -164 166z" />
<glyph unicode="&#x39f;" horiz-adv-x="1542" d="M39 813q0 158 44 303.5t128 263t220 188t304 70.5q225 0 390 -123.5t241 -308t76 -399.5q0 -158 -45 -304.5t-130 -263t-223.5 -187t-308.5 -70.5q-168 0 -303 70.5t-219 189t-129 265t-45 306.5zM375 817q0 -209 96 -359.5t268 -150.5q176 0 271.5 145.5t95.5 350.5 q0 207 -97.5 355.5t-273.5 148.5q-172 0 -266 -144.5t-94 -345.5z" />
<glyph unicode="&#x3a0;" horiz-adv-x="1353" d="M33 166v1264q0 168 162 167h901q66 0 116 -51t50 -116v-1264q0 -166 -164 -166q-162 0 -162 166v1100h-576v-1100q0 -166 -167 -166q-160 0 -160 166z" />
<glyph unicode="&#x3a1;" horiz-adv-x="1087" d="M27 166v1257q0 170 172 170h346q236 0 387 -146.5t151 -377.5q0 -221 -151.5 -369.5t-374.5 -148.5h-203v-385q0 -166 -163.5 -166t-163.5 166zM354 879h195q92 0 146.5 52t54.5 140q0 92 -60.5 143.5t-171.5 51.5h-164v-387z" />
<glyph unicode="&#x3a3;" horiz-adv-x="1239" d="M31 174q0 68 35 125l344 532l-304 461q-51 78 -51 144q0 158 193 157h719q166 0 166 -166q0 -164 -166 -163h-445l217 -330q35 -51 35 -105q0 -49 -31 -90l-268 -411h516q166 0 166 -166q0 -162 -166 -162h-801q-159 0 -159 174z" />
<glyph unicode="&#x3a4;" horiz-adv-x="1077" d="M25 1427q0 166 170 166h702q166 0 166 -166q0 -162 -166 -161h-188v-1092q0 -174 -160 -174q-168 0 -168 174v1092h-186q-170 -1 -170 161z" />
<glyph unicode="&#x3a5;" horiz-adv-x="1157" d="M27 1434q0 162 157 161q100 0 140 -88l251 -559q39 66 121 280t121 279q53 88 150 88q158 0 157 -155q0 -49 -24 -90l-367 -705v-469q0 -176 -166 -176t-166 176v473q-55 100 -172.5 343t-175.5 345q-26 50 -26 97z" />
<glyph unicode="&#x3a6;" horiz-adv-x="1554" d="M41 868q0 233 165 395t398 197v15q0 166 166 165q82 0 124 -36.5t42 -94.5v-49q238 -29 399.5 -191.5t161.5 -400.5q0 -231 -166 -390t-397 -193v-117q0 -168 -164 -168q-166 0 -166 168v115q-242 29 -402.5 188t-160.5 397zM362 868q0 -98 71 -177t171 -103v571 q-102 -23 -172 -105t-70 -186zM934 586q102 23 169.5 100.5t67.5 181.5q0 102 -68.5 184.5t-168.5 104.5v-571z" />
<glyph unicode="&#x3a7;" horiz-adv-x="1359" d="M35 147q0 59 35 117l387 600l-334 467q-33 47 -33 103q0 70 48 114.5t114 44.5q86 0 139 -71l262 -365l232 356q49 80 139 80q63 0 112.5 -48t49.5 -115q0 -49 -31 -97l-303 -446l405 -621q41 -63 41 -121q0 -147 -147 -147q-88 0 -152 82l-344 504l-319 -500 q-53 -86 -154 -86q-147 -1 -147 149z" />
<glyph unicode="&#x3a8;" horiz-adv-x="1558" d="M39 946v445q0 164 168 163q160 0 160 -163v-420q0 -129 61 -227.5t166 -127.5v859q0 166 162 165q164 0 164 -165v-863q111 23 167 118t56 241v420q0 166 166 165.5t166 -165.5v-445q0 -272 -150.5 -441t-404.5 -198v-143q0 -164 -164 -164q-162 0 -162 164v145 q-256 33 -405.5 201t-149.5 436z" />
<glyph unicode="&#x3a9;" horiz-adv-x="1505" d="M88 1040q0 242 166 420t461 178q301 0 470 -178t169 -419.5t-168 -416.5t-471 -175q-201 0 -346.5 87t-213 218.5t-67.5 285.5zM100 164q0 164 160 164h920q160 0 159.5 -164t-159.5 -164h-920q-160 0 -160 164zM416 1040.5q0 -110.5 79.5 -189.5t225 -79t226.5 79 t81 187q0 111 -83 194t-226 83q-141 0 -222 -82t-81 -192.5z" />
<glyph unicode="&#x3aa;" horiz-adv-x="567" d="M-178 1827q0 78 53 130t131 52q76 0 129 -53t53 -129t-53 -129t-129 -53q-78 0 -131 52t-53 130zM94 166q0 -166 164 -166q166 0 166 166v1264q0 166 -166 165q-164 0 -164 -165v-1264zM332 1827q0 76 52 129t128 53q78 0 130 -52t52 -130t-52 -130t-130 -52 q-76 0 -128 53t-52 129z" />
<glyph unicode="&#x3ab;" horiz-adv-x="1277" d="M78 1434q0 -47 26 -97q57 -102 175 -344.5t174 -343.5v-473q0 -176 165.5 -176t165.5 176v469l367 705q25 41 25 90q0 156 -158 155q-96 0 -150 -88q-39 -66 -120.5 -279.5t-120.5 -279.5l-252 559q-39 88 -139 88q-158 1 -158 -161zM176 1827q0 78 53.5 130t130.5 52 q76 0 129.5 -53t53.5 -129t-53.5 -129t-129.5 -53q-78 0 -131 52t-53 130zM686 1827q0 76 52.5 129t127.5 53q78 0 130.5 -52t52.5 -130t-52.5 -130t-130.5 -52q-76 0 -128 53t-52 129z" />
<glyph unicode="&#x3ac;" horiz-adv-x="1187" d="M4 590q0 270 131 444t307 174q80 0 157 -37.5t124 -111.5q10 147 164 147q160 0 160 -164v-917q0 -152 -160 -152q-145 0 -146 146v41q-123 -182 -301 -183q-172 0 -304 174.5t-132 438.5zM330 588q0 -125 50 -215t140 -90q82 0 145.5 86t63.5 227t-61.5 228t-141.5 87 q-90 0 -143 -98t-53 -225zM412 1475q0 45 18 71l119 279q45 106 149 106q154 0 154 -155q0 -27 -12 -60l-123 -276q-14 -37 -26.5 -57.5t-43.5 -41t-76 -20.5q-80 0 -119.5 42t-39.5 112z" />
<glyph unicode="&#x3ad;" horiz-adv-x="974" d="M18 330q0 82 58.5 158.5t169.5 127.5q-178 98 -178 235.5t130 244t326 106.5q86 0 159 -12t136.5 -56t63.5 -116q0 -123 -142 -123q-29 0 -90 10q-45 10 -112 10q-78 0 -120 -30.5t-42 -71.5q0 -33 25.5 -55.5t68.5 -22.5h111q176 0 176 -121q0 -117 -172 -116h-111 q-57 -8 -90 -43t-33 -80q0 -49 40 -83t112 -34q51 0 145 23q70 18 123 18q74 0 111 -33t37 -88q0 -66 -44.5 -109.5t-116 -64t-134 -28t-127.5 -7.5q-205 0 -342.5 110t-137.5 251zM356 1475q0 45 19 71l119 279q45 106 149 106q154 0 154 -155q0 -27 -13 -60l-122 -276 q-14 -37 -26.5 -57.5t-43.5 -41t-76 -20.5q-80 0 -120 42t-40 112z" />
<glyph unicode="&#x3ae;" horiz-adv-x="1067" d="M35 158v864q0 70 41 117t114.5 47t116.5 -43t45 -94q129 143 283 143q139 0 243.5 -99.5t104.5 -306.5v-1058q0 -158 -162 -158q-160 0 -159 158v1001q0 86 -45.5 134t-104.5 48q-66 0 -113 -48t-47 -134v-571q0 -158 -162 -158q-155 0 -155 158zM336 1475q0 45 18 71 l119 279q45 106 150 106q154 0 153 -155q0 -27 -12 -60l-123 -276q-14 -37 -26.5 -57.5t-43 -41t-75.5 -20.5q-80 0 -120 42t-40 112z" />
<glyph unicode="&#x3af;" horiz-adv-x="475" d="M27 158v886q0 160 159 160q164 0 164 -160v-886q0 -158 -164 -158q-159 0 -159 158zM35 1475q0 45 18 71l119 279q45 106 150 106q154 0 153 -155q0 -27 -12 -60l-123 -276q-14 -37 -26.5 -57.5t-43 -41t-75.5 -20.5q-80 0 -120 42t-40 112z" />
<glyph unicode="&#x3b0;" horiz-adv-x="1073" d="M-59 1507.5q0 77.5 52 130t130 52.5q76 0 128 -53.5t52 -129t-52 -129t-128 -53.5q-78 0 -130 52.5t-52 130zM43 422q0 -193 139.5 -319t331.5 -126q190 0 333.5 128t143.5 317v612q0 160 -162 160q-160 0 -159 -160v-569q0 -72 -44 -120t-112 -48t-111 48t-43 120v569 q0 160 -161 160q-156 0 -156 -160v-612zM367 1475q0 45 18 71l-2 -6l121 287q47 106 153 106q76 0 117 -42t41 -115q0 -10 -7 -35t-7 -27l-123 -274q-14 -35 -27.5 -56.5t-45.5 -42t-75 -20.5q-78 0 -120.5 43t-42.5 111zM793 1507.5q0 77.5 53 130t131 52.5q76 0 129 -53.5 t53 -129t-53 -129t-129 -53.5q-78 0 -131 52.5t-53 130z" />
<glyph unicode="&#x3b1;" horiz-adv-x="1187" d="M4 590q0 270 131 444t307 174q80 0 157 -37.5t124 -111.5q10 147 164 147q160 0 160 -164v-917q0 -152 -160 -152q-145 0 -146 146v41q-123 -182 -301 -183q-172 0 -304 174.5t-132 438.5zM330 588q0 -125 50 -215t140 -90q82 0 145.5 86t63.5 227t-61.5 228t-141.5 87 q-90 0 -143 -98t-53 -225z" />
<glyph unicode="&#x3b2;" horiz-adv-x="1144" d="M37 -252v1344q0 217 121 351t350 134q184 0 310 -117t126 -268q0 -78 -41 -154.5t-119 -119.5q125 -51 195 -175.5t70 -257.5q0 -209 -125 -351t-316 -142q-145 0 -250 119v-361q0 -170 -161 -170q-160 0 -160 168zM356 471q0 -80 49.5 -126t129.5 -46q90 0 141 64.5 t51 154.5q0 76 -41 143.5t-111 98.5q-6 0 -15 1t-11 1q-6 2 -45 2q-37 0 -57.5 32.5t-20.5 80.5q0 45 22.5 79.5t63.5 36.5h45q63 31 64 123q0 59 -31 103.5t-84 44.5q-86 0 -117 -62.5t-31 -179.5v-262q0 -25 -1 -116t-1 -173z" />
<glyph unicode="&#x3b3;" horiz-adv-x="1081" d="M37 1069q0 61 51 106.5t111 45.5q70 0 116.5 -38t53.5 -98l168 -604l168 609q45 131 161 131q61 0 113.5 -47.5t52.5 -114.5q0 -31 -10 -55l-41 -113q-238 -627 -281 -778v-361q0 -176 -165 -176q-162 0 -162 178v357l-328 899q-8 18 -8 59z" />
<glyph unicode="&#x3b4;" horiz-adv-x="1173" d="M39 543q0 139 89 273t257 181q-94 53 -146.5 128t-52.5 145q0 129 119 221t322 92q162 0 266 -54t104 -157q0 -49 -33.5 -77.5t-91.5 -28.5q-35 0 -96 20q-61 25 -137 25q-143 0 -143 -94q0 -37 44 -73t119 -63q434 -145 435 -551q0 -233 -140.5 -390.5t-384 -157.5 t-387 164t-143.5 397zM360 545q0 -106 55.5 -182t151.5 -76q98 0 153.5 63.5t55.5 167.5q0 113 -57 189.5t-154 76.5q-92 0 -148.5 -73.5t-56.5 -165.5z" />
<glyph unicode="&#x3b5;" horiz-adv-x="974" d="M18 330q0 82 58.5 158.5t169.5 127.5q-178 98 -178 235.5t130 244t326 106.5q86 0 159 -12t136.5 -56t63.5 -116q0 -123 -142 -123q-29 0 -90 10q-45 10 -112 10q-78 0 -120 -30.5t-42 -71.5q0 -33 25.5 -55.5t68.5 -22.5h111q176 0 176 -121q0 -117 -172 -116h-111 q-57 -8 -90 -43t-33 -80q0 -49 40 -83t112 -34q51 0 145 23q70 18 123 18q74 0 111 -33t37 -88q0 -66 -44.5 -109.5t-116 -64t-134 -28t-127.5 -7.5q-205 0 -342.5 110t-137.5 251z" />
<glyph unicode="&#x3b6;" horiz-adv-x="1101" d="M115 571q0 375 467 652h-271q-76 0 -127 41t-51 114q0 78 50 118t128 40h594q162 0 162 -156q0 -66 -31.5 -100.5t-97.5 -56.5q-158 -43 -318.5 -231.5t-160.5 -411.5q0 -84 21.5 -140.5t67.5 -89.5t82 -47t101 -31q301 -82 301 -301q0 -125 -52 -224t-155 -99 q-59 0 -104 48t-45 103q0 33 8 73t8 50q0 41 -76 70q-25 10 -51 18q-47 16 -74.5 26.5t-81 37t-88 52.5t-77.5 71t-67.5 95t-43 122.5t-18.5 156.5z" />
<glyph unicode="&#x3b7;" horiz-adv-x="1067" d="M35 158v864q0 70 41 117t114.5 47t116.5 -43t45 -94q129 143 283 143q139 0 243.5 -99.5t104.5 -306.5v-1058q0 -158 -162 -158q-160 0 -159 158v1001q0 86 -45.5 134t-104.5 48q-66 0 -113 -48t-47 -134v-571q0 -158 -162 -158q-155 0 -155 158z" />
<glyph unicode="&#x3b8;" horiz-adv-x="1196" d="M39 776q0 135 27.5 266.5t85 255t166 200.5t251.5 77q141 0 249 -79t166 -204t87 -257t29 -263q0 -139 -29 -271t-89 -251t-167.5 -191.5t-249.5 -72.5q-115 0 -208 51t-151.5 131t-97 186.5t-54 211t-15.5 210.5zM360 770q0 -74 10.5 -148.5t33 -150.5t65.5 -124 t102 -48q57 0 98.5 49t63 126t30.5 151.5t9 146.5t-9 147.5t-29.5 155.5t-61.5 130t-97 50q-59 0 -103 -50t-67.5 -129t-34 -155.5t-10.5 -150.5zM416 788q0 76 40 119t105 43q76 0 113 -46t37 -116q0 -66 -37 -109.5t-113 -43.5q-66 0 -105.5 39.5t-39.5 113.5z" />
<glyph unicode="&#x3b9;" horiz-adv-x="475" d="M27 158v886q0 160 159 160q164 0 164 -160v-886q0 -158 -164 -158q-159 0 -159 158z" />
<glyph unicode="&#x3ba;" horiz-adv-x="1087" d="M33 158v872q0 160 157 160q160 0 160 -160v-254q66 55 198 179t197 180q47 39 109 39q66 0 115 -45.5t49 -108.5q0 -68 -66 -117l-209 -192q70 -127 130.5 -231.5t87 -147.5t47 -80t25.5 -53.5t5 -42.5q0 -70 -36.5 -115t-114.5 -45q-45 0 -88 23.5t-66 58.5l-237 457 q-141 -129 -146 -134v-243q0 -158 -160 -158q-157 0 -157 158z" />
<glyph unicode="&#x3bb;" horiz-adv-x="1056" d="M6 147q0 33 12 68l306 809q-10 29 -57.5 155t-69.5 191v35q0 66 49 107.5t116 41.5q125 0 173 -139l407 -1184q14 -39 14 -73q0 -72 -38.5 -115t-116.5 -43q-125 0 -168 125l-146 528q-10 -31 -22 -71.5t-26.5 -96t-24.5 -88.5q-53 -193 -80 -270q-45 -127 -172 -127 q-78 0 -117 40.5t-39 106.5z" />
<glyph unicode="&#x3bc;" horiz-adv-x="1120" d="M37 -270v1304q0 160 156 160q158 0 157 -160v-598q0 -57 38 -93t95 -36q82 0 131.5 59.5t49.5 145.5v522q0 160 159 160q158 0 158 -160v-864q0 -170 -158 -170q-47 0 -84 35t-39 96q-18 -63 -71.5 -100t-120.5 -37q-57 0 -101.5 39t-56.5 96v-399q0 -160 -160 -160 q-153 0 -153 160z" />
<glyph unicode="&#x3bd;" horiz-adv-x="1030" d="M33 1040q0 72 45 114t115 42q129 0 167 -145l144 -545l139 551q51 139 170 139q72 0 114 -40t42 -116q0 -33 -13 -63l-294 -862q-41 -115 -168 -115q-119 0 -160 115l-291 866q-10 34 -10 59z" />
<glyph unicode="&#x3be;" horiz-adv-x="1101" d="M35 442q0 119 88 221.5t229 174.5q-90 18 -137 69t-47 117q0 68 47 132.5t123 94.5q-2 0 -16.5 1t-26.5 1q-8 0 -53 2t-70 5q-41 4 -66.5 35.5t-25.5 82.5q0 82 32.5 120t106.5 38h592q162 0 162 -156q0 -70 -31 -98.5t-113 -28.5q-182 0 -261 -49t-79 -121 q0 -55 38 -88.5t106 -33.5q195 0 194 -125q0 -123 -190 -123q-111 0 -184.5 -60.5t-73.5 -148.5q0 -78 65.5 -140.5t202.5 -95.5q311 -76 311 -297q0 -63 -25.5 -136t-79.5 -130t-122 -57q-61 0 -106 48t-45 103q0 29 14 77t14 71q0 29 -82 47q-76 16 -131 31.5t-127.5 51.5 t-119 80t-80 117.5t-33.5 167.5z" />
<glyph unicode="&#x3bf;" horiz-adv-x="1204" d="M39 604q0 252 141.5 426t392.5 174q250 0 392.5 -180t142.5 -432q0 -256 -142.5 -433t-392.5 -177q-252 0 -393 183t-141 439zM367 614q0 -127 54 -236.5t152 -109.5q100 0 153.5 94.5t53.5 217.5q0 125 -54 229t-153 104q-100 0 -153 -88t-53 -211z" />
<glyph unicode="&#x3c0;" horiz-adv-x="1087" d="M35 158v872q0 66 42 114t109 48h648q160 0 159 -164v-870q0 -158 -159 -158q-158 0 -158 158v733h-322v-733q0 -158 -161 -158q-158 0 -158 158z" />
<glyph unicode="&#x3c1;" horiz-adv-x="1173" d="M39 -260v864q0 270 141.5 445.5t388.5 175.5q256 0 387 -174t131 -457q0 -301 -136 -463t-314 -162q-86 0 -161 43t-118 119v-391q0 -160 -161 -160q-158 0 -158 160zM362 608q0 -154 62.5 -234.5t148.5 -80.5q80 0 138.5 80t58.5 219q0 127 -47 224t-143 97 q-106 0 -162 -80t-56 -225z" />
<glyph unicode="&#x3c2;" horiz-adv-x="1187" d="M66 598q0 262 189 439t429 177q123 0 250 -57q49 -20 82 -64t33 -87q0 -68 -44 -118t-112 -50q-31 0 -103.5 23.5t-113.5 23.5q-115 0 -196 -84t-81 -223q0 -63 17.5 -110.5t39 -73t66.5 -47t70.5 -29t83.5 -21.5q150 -37 244 -118t94 -210q0 -121 -61.5 -223 t-166.5 -102q-59 0 -105 48t-46 103q0 23 3 53.5t3 42.5q0 57 -68 103q-59 14 -95 23.5t-96 33t-98 50t-84 72.5t-72 103.5t-44 139.5t-18 182z" />
<glyph unicode="&#x3c3;" horiz-adv-x="1335" d="M45 614q0 256 146.5 428t404.5 172l498 -2q74 -4 124 -47t50 -114q0 -61 -53.5 -110.5t-116.5 -49.5l-137 24q127 -160 126 -399q0 -215 -145 -374.5t-371 -159.5q-248 0 -387 187t-139 445zM373 612q0 -121 54 -221t151 -100q100 0 148 83t48 201q0 129 -47 230.5 t-145.5 101.5t-153.5 -88t-55 -207z" />
<glyph unicode="&#x3c4;" horiz-adv-x="1095" d="M35 1044q0 152 147 152h635q166 0 166 -154q0 -152 -162 -151h-162v-473q0 -72 6.5 -99.5t32.5 -27.5q174 0 174 -153.5t-174 -153.5q-209 0 -283.5 106.5t-74.5 327.5v471h-150q-155 -1 -155 155z" />
<glyph unicode="&#x3c5;" horiz-adv-x="1073" d="M35 422v612q0 160 155 160q162 0 162 -160v-569q0 -72 43 -120t110.5 -48t112 48t44.5 120v569q0 160 159 160q162 0 162 -160v-612q0 -188 -143.5 -316.5t-333.5 -128.5q-193 0 -332 126t-139 319z" />
<glyph unicode="&#x3c6;" horiz-adv-x="1472" d="M23 586q0 176 87 347t232 265q41 20 80 21q45 0 74.5 -25t29.5 -72q0 -61 -63 -155q-37 -53 -57.5 -90t-42 -119t-21.5 -178q0 -86 41 -166t115 -117v360q0 92 18.5 180.5t60 176.5t126.5 142t202 54q147 0 256 -91t158 -220t49 -270q0 -254 -150.5 -431.5t-398.5 -205.5 v-254q0 -162 -160 -162q-162 0 -161 162v256q-233 33 -354 200t-121 392zM819 285q102 27 162.5 124t60.5 222q0 98 -34.5 188t-102.5 90q-57 0 -74 -53q-12 -35 -12 -203v-368z" />
<glyph unicode="&#x3c7;" horiz-adv-x="1067" d="M37 -283q0 45 24 99l308 626q-33 68 -136 252q-88 156 -133 252q-20 47 -20 94q0 160 158 160q109 0 153 -98l144 -383l161 385q45 92 146 92q68 0 115 -46t47 -116q0 -47 -23 -94l-291 -498l154 -292q109 -199 172 -330q25 -49 24 -90q0 -39 -14 -70q-41 -84 -139 -84 q-113 0 -166 113l-191 469q-20 -49 -86 -232q-43 -125 -90 -241q-49 -113 -170 -113q-98 0 -135 82q-12 24 -12 63z" />
<glyph unicode="&#x3c8;" horiz-adv-x="1427" d="M47 610v410q0 178 158 178q68 0 117 -50t49 -126v-412q0 -117 33.5 -206t101.5 -121v878q0 164 158 164q162 0 161 -164v-880q66 31 101 118.5t35 198.5v424q0 176 159 176q68 0 117 -49t49 -129v-410q0 -254 -118.5 -425t-344.5 -199v-226q0 -186 -159 -186 q-158 0 -158 186v226q-225 29 -342 200.5t-117 423.5z" />
<glyph unicode="&#x3c9;" horiz-adv-x="1394" d="M49 479q0 215 75 394.5t189 289.5q45 39 115 39q63 0 102 -42t39 -101q0 -51 -41 -103q-160 -178 -159 -467q0 -90 29.5 -141t70.5 -51q31 0 52.5 35t21.5 96v227q0 170 123 170q119 0 118 -163v-234q0 -61 21.5 -96t52.5 -35q41 0 72 52t31 143q0 260 -156 456 q-49 61 -49 113q0 61 40 103t103 42q66 0 113 -39q119 -106 191.5 -280t72.5 -395q0 -227 -113.5 -367.5t-261.5 -140.5q-86 0 -152.5 69.5t-89.5 200.5q-20 -119 -88.5 -193.5t-150.5 -74.5q-145 0 -258 140t-113 353z" />
<glyph unicode="&#x3ca;" horiz-adv-x="645" d="M-125 1507.5q0 77.5 53.5 130t130.5 52.5q76 0 129.5 -53.5t53.5 -129t-53.5 -129t-129.5 -53.5q-78 0 -131 52.5t-53 130zM139 158q0 -158 160 -158q164 0 164 158v886q0 160 -164 160q-160 0 -160 -160v-886zM385 1507.5q0 75.5 52 129t128 53.5q78 0 130.5 -52.5 t52.5 -130t-52.5 -130t-130.5 -52.5q-76 0 -128 53.5t-52 129z" />
<glyph unicode="&#x3cb;" horiz-adv-x="1073" d="M35 422q0 -193 139 -319t332 -126q190 0 333.5 128t143.5 317v612q0 160 -162 160q-160 0 -159 -160v-569q0 -72 -44.5 -120t-112 -48t-110.5 48t-43 120v569q0 160 -162 160q-156 0 -155 -160v-612zM78 1507.5q0 77.5 53 130t131 52.5q76 0 129 -53.5t53 -129t-53 -129 t-129 -53.5q-78 0 -131 52.5t-53 130zM588 1507.5q0 75.5 52 129t128 53.5q78 0 130 -52.5t52 -130t-52 -130t-130 -52.5q-76 0 -128 53.5t-52 129z" />
<glyph unicode="&#x3cc;" horiz-adv-x="1204" d="M39 604q0 252 141.5 426t392.5 174q250 0 392.5 -180t142.5 -432q0 -256 -142.5 -433t-392.5 -177q-252 0 -393 183t-141 439zM367 614q0 -127 54 -236.5t152 -109.5q100 0 153.5 94.5t53.5 217.5q0 125 -54 229t-153 104q-100 0 -153 -88t-53 -211zM444 1475q0 45 19 71 l119 279q45 106 149 106q154 0 154 -155q0 -27 -13 -60l-122 -276q-14 -37 -26.5 -57.5t-43.5 -41t-76 -20.5q-80 0 -120 42t-40 112z" />
<glyph unicode="&#x3cd;" horiz-adv-x="1073" d="M35 422v612q0 160 155 160q162 0 162 -160v-569q0 -72 43 -120t110.5 -48t112 48t44.5 120v569q0 160 159 160q162 0 162 -160v-612q0 -188 -143.5 -316.5t-333.5 -128.5q-193 0 -332 126t-139 319zM358 1475q0 45 19 71l119 279q45 106 149 106q154 0 154 -155 q0 -27 -13 -60l-122 -276q-14 -37 -26.5 -57.5t-43.5 -41t-76 -20.5q-80 0 -120 42t-40 112z" />
<glyph unicode="&#x3ce;" horiz-adv-x="1394" d="M49 479q0 215 75 394.5t189 289.5q45 39 115 39q63 0 102 -42t39 -101q0 -51 -41 -103q-160 -178 -159 -467q0 -90 29.5 -141t70.5 -51q31 0 52.5 35t21.5 96v227q0 170 123 170q119 0 118 -163v-234q0 -61 21.5 -96t52.5 -35q41 0 72 52t31 143q0 260 -156 456 q-49 61 -49 113q0 61 40 103t103 42q66 0 113 -39q119 -106 191.5 -280t72.5 -395q0 -227 -113.5 -367.5t-261.5 -140.5q-86 0 -152.5 69.5t-89.5 200.5q-20 -119 -88.5 -193.5t-150.5 -74.5q-145 0 -258 140t-113 353zM516 1475q0 45 19 71l118 279q45 106 150 106 q154 0 153 -155q0 -27 -12 -60l-123 -276q-14 -37 -26.5 -57.5t-43 -41t-75.5 -20.5q-80 0 -120 42t-40 112z" />
<glyph unicode="&#x2000;" horiz-adv-x="1003" />
<glyph unicode="&#x2001;" horiz-adv-x="2009" />
<glyph unicode="&#x2002;" horiz-adv-x="1003" />
<glyph unicode="&#x2003;" horiz-adv-x="2009" />
<glyph unicode="&#x2004;" horiz-adv-x="669" />
<glyph unicode="&#x2005;" horiz-adv-x="501" />
<glyph unicode="&#x2006;" horiz-adv-x="333" />
<glyph unicode="&#x2007;" horiz-adv-x="333" />
<glyph unicode="&#x2008;" horiz-adv-x="249" />
<glyph unicode="&#x2009;" horiz-adv-x="401" />
<glyph unicode="&#x200a;" horiz-adv-x="110" />
<glyph unicode="&#x2010;" horiz-adv-x="800" d="M33 594q0 66 47 115t123 49h375q170 0 170 -164q0 -158 -170 -158h-375q-170 0 -170 158z" />
<glyph unicode="&#x2011;" horiz-adv-x="800" d="M33 594q0 66 47 115t123 49h375q170 0 170 -164q0 -158 -170 -158h-375q-170 0 -170 158z" />
<glyph unicode="&#x2012;" horiz-adv-x="800" d="M33 594q0 66 47 115t123 49h375q170 0 170 -164q0 -158 -170 -158h-375q-170 0 -170 158z" />
<glyph unicode="&#x2013;" horiz-adv-x="1474" d="M49 594q0 66 47 115t123 49h922q170 0 170 -164q0 -158 -170 -158h-922q-170 0 -170 158z" />
<glyph unicode="&#x2014;" horiz-adv-x="1900" d="M66 594q0 66 47 115t123 49h1282q170 0 170 -164q0 -158 -170 -158h-1282q-170 0 -170 158z" />
<glyph unicode="&#x2018;" horiz-adv-x="520" d="M12 1407q0 63 49.5 107.5t114.5 44.5q96 0 137 -93l133 -309q20 -29 21 -70q0 -57 -53.5 -105t-106.5 -48t-96 35t-64 84l-122 297l2 -7q-15 39 -15 64z" />
<glyph unicode="&#x2019;" horiz-adv-x="520" d="M12 1087q0 33 23 68l131 311q39 92 139 93q66 0 114 -44.5t48 -107.5q0 -33 -14 -64l-119 -290q-20 -47 -63.5 -83t-96.5 -36q-55 0 -108.5 48t-53.5 105z" />
<glyph unicode="&#x201a;" horiz-adv-x="520" d="M12 -90q0 29 15 61l120 293q20 49 64.5 82t97.5 33q57 0 107.5 -45t50.5 -105q0 -35 -21 -67l-133 -314q-45 -90 -137 -90q-66 0 -115 44.5t-49 107.5z" />
<glyph unicode="&#x201c;" horiz-adv-x="1015" d="M27 1407q0 63 48 107.5t113 44.5q98 0 140 -93l133 -309q20 -33 20 -70q0 -57 -53 -105t-109 -48q-51 0 -95 36t-62 83l-121 297l2 -7q-16 37 -16 64zM481 1407q0 66 47 109t113 43q100 0 141 -93l133 -309q18 -35 19 -70q0 -57 -53.5 -105t-108.5 -48q-51 0 -94 36 t-62 83l-122 297l2 -7q-15 31 -15 64z" />
<glyph unicode="&#x201d;" horiz-adv-x="1009" d="M27 1087q0 31 20 68l131 311q45 92 139 93q66 0 115 -44.5t49 -107.5q0 -25 -14 -64l2 7l-123 -297q-20 -49 -63 -84t-97 -35q-51 0 -105 48t-54 105zM481 1087q0 35 19 68l131 311q45 92 139 93q66 0 115 -44.5t49 -107.5q0 -25 -14 -64l2 7l-123 -297 q-18 -47 -61.5 -83t-98.5 -36q-51 0 -104.5 48t-53.5 105z" />
<glyph unicode="&#x201e;" horiz-adv-x="991" d="M25 -90q0 25 16 61l121 293q18 47 64 82t98 35q55 0 105 -46t50 -106q0 -33 -18 -67l-135 -314q-41 -90 -138 -90q-66 0 -114.5 44.5t-48.5 107.5zM461 -90q0 33 16 61l119 293q20 49 66.5 82t97.5 33q57 0 106 -44t49 -106q0 -35 -20 -67l-133 -314q-41 -90 -139 -90 q-63 0 -112.5 44.5t-49.5 107.5z" />
<glyph unicode="&#x2020;" horiz-adv-x="1155" d="M37 1038q0 156 158 156h176v176q0 80 48 130t113 50q156 0 156 -180v-176h180q160 0 160 -160q0 -156 -160 -155h-180v-699q0 -180 -156 -180q-66 0 -113.5 49t-47.5 131v699h-176q-158 -1 -158 159z" />
<glyph unicode="&#x2021;" horiz-adv-x="1155" d="M37 528q0 156 158 156h176v195h-176q-158 0 -158 159q0 158 158 158h176v174q0 84 47 132t114 48q156 0 156 -180v-174h180q160 0 160 -162q0 -156 -160 -155h-180v-195h180q160 0 160 -162q0 -154 -160 -153h-180v-195q0 -180 -156 -180q-68 0 -114.5 48t-46.5 132v195 h-176q-158 -1 -158 159z" />
<glyph unicode="&#x2022;" horiz-adv-x="1187" d="M141 721q0 176 115 290.5t293 114.5q176 0 289.5 -114.5t113.5 -290.5t-113.5 -293t-289.5 -117q-178 0 -293 116t-115 294z" />
<glyph unicode="&#x2026;" horiz-adv-x="1413" d="M37 182q0 76 53 129.5t129 53.5t129 -53.5t53 -129.5t-53 -129t-129 -53t-129 53t-53 129zM510 182q0 76 52 129.5t130 53.5q76 0 129 -53.5t53 -129.5t-53 -129t-129 -53q-78 0 -130 53t-52 129zM987 182q0 76 52.5 129.5t127.5 53.5q78 0 130.5 -53.5t52.5 -129.5 t-52.5 -129t-130.5 -53q-76 0 -128 53t-52 129z" />
<glyph unicode="&#x202f;" horiz-adv-x="401" />
<glyph unicode="&#x2030;" horiz-adv-x="2906" d="M90 1147q0 180 108.5 298t287 118t286 -124t107.5 -306q0 -178 -107.5 -302t-286 -124t-287 130t-108.5 310zM397 1138.5q0 -57.5 23.5 -101.5t64.5 -44q47 0 71 41t24 99q0 59 -25 102t-70 43q-41 0 -64.5 -41t-23.5 -98.5zM618 113q0 27 17 71l495 1276q45 113 156 113 q143 0 144 -152q0 -37 -13 -75q-47 -129 -268 -689.5t-250 -611.5q-47 -84 -135 -84q-146 0 -146 152zM1176 412q0 182 108.5 299.5t290.5 117.5q176 0 281.5 -127t105.5 -305q0 -182 -103.5 -302t-283.5 -120q-182 0 -290.5 126.5t-108.5 310.5zM1481 403.5 q0 -57.5 24.5 -100.5t69.5 -43q41 0 65.5 41t24.5 94q0 57 -24.5 103.5t-65.5 46.5q-45 0 -69.5 -42t-24.5 -99.5zM2017 412q0 180 108.5 298.5t291.5 118.5q176 0 282.5 -127t106.5 -305q0 -182 -104.5 -302t-284.5 -120q-182 0 -291 126.5t-109 310.5zM2322 403.5 q0 -57.5 26 -100.5t69 -43t67.5 41t24.5 94q0 57 -25.5 103.5t-66.5 46.5q-43 0 -69 -42t-26 -99.5z" />
<glyph unicode="&#x2039;" horiz-adv-x="1396" d="M47 596q0 111 115 164l833 387q47 23 92 22q35 0 66 -12q90 -39 90 -133q0 -102 -115 -160l-641 -266l627 -289q117 -53 117 -166q0 -143 -152 -143q-59 0 -108 25l-811 403q-113 55 -113 168z" />
<glyph unicode="&#x203a;" horiz-adv-x="1396" d="M47 1030q0 147 156 148q35 0 73 -15l836 -411q131 -66 131 -164q0 -109 -147 -180l-813 -392q-37 -14 -76 -14q-158 0 -158 156q0 109 111 157l635 271l-639 284q-109 58 -109 160z" />
<glyph unicode="&#x205f;" horiz-adv-x="501" />
<glyph unicode="&#x20ac;" horiz-adv-x="1589" d="M-6 661.5q0 69.5 36 90t124 20.5h22v31q0 37 2 57h-24q-90 0 -125 19.5t-35 89t36 90t124 20.5h59q72 248 255 405.5t460 157.5q270 0 467 -178q63 -59 63 -139q0 -76 -46 -123t-116 -47q-80 0 -125 49q-96 96 -249 96q-240 0 -344 -221h444q90 0 126 -20.5t36 -91.5 q0 -70 -36 -88.5t-126 -18.5h-502v-88h277q90 0 125.5 -20.5t35.5 -92.5q0 -70 -35.5 -88t-125.5 -18h-219q109 -223 346 -223q158 0 245 88q49 49 113 49q82 0 123 -47t41 -119q0 -86 -62 -141q-205 -182 -466 -183q-283 0 -465.5 161t-245.5 415h-53q-90 0 -125 19.5 t-35 89z" />
<glyph unicode="&#x2122;" horiz-adv-x="1636" d="M49 1434q0 123 123 122h338q127 0 127 -124q0 -123 -127 -123h-43v-488q0 -135 -125 -135t-125 135v488h-45q-123 0 -123 125zM627 815v10l92 609q23 135 145 135q119 0 152 -115l63 -287l68 289q33 113 151 113q57 0 97.5 -36t50.5 -99l92 -609v-8q0 -123 -123 -123 q-109 0 -127 113l-26 344q-8 -33 -30 -179.5t-32 -178.5q-37 -102 -123 -103q-90 0 -125 105l-55 344l-25 -330q-16 -117 -127 -117q-118 0 -118 123z" />
<glyph unicode="&#x2126;" horiz-adv-x="1505" d="M88 1040q0 242 166 420t461 178q301 0 470 -178t169 -419.5t-168 -416.5t-471 -175q-201 0 -346.5 87t-213 218.5t-67.5 285.5zM100 164q0 164 160 164h920q160 0 159.5 -164t-159.5 -164h-920q-160 0 -160 164zM416 1040.5q0 -110.5 79.5 -189.5t225 -79t226.5 79 t81 187q0 111 -83 194t-226 83q-141 0 -222 -82t-81 -192.5z" />
<glyph unicode="&#x2206;" horiz-adv-x="1429" d="M37 141q0 31 14 74l-2 -6l455 1239q53 150 194 149q154 0 199 -147l471 -1239q12 -39 12 -72q0 -139 -209 -139h-952q-182 0 -182 141zM449 340h514l-265 692z" />
<glyph unicode="&#xe000;" horiz-adv-x="1195" d="M0 1195h1195v-1195h-1195v1195z" />
<glyph horiz-adv-x="1212" d="M41 633q0 170 58.5 315.5t183.5 242.5t297 97h8q254 0 393 -192.5t139 -456.5q0 -172 -56 -318.5t-181 -245t-299 -98.5q-256 0 -399.5 195t-143.5 461zM369 637q0 -137 56 -236.5t159 -99.5q98 0 154.5 96.5t56.5 229.5q0 135 -56.5 235.5t-152.5 100.5 q-104 0 -160.5 -96.5t-56.5 -229.5z" />
<glyph horiz-adv-x="782" d="M27 1038q0 55 33.5 101.5t101.5 62.5q55 14 103 27.5t76 22t50 14.5l34 9q11 3 19.5 5t11.5 3t7 1q53 0 91 -27.5t52 -66.5q16 -27 17 -127v-893q0 -74 -45.5 -122t-119 -48t-119.5 48t-46 122v741q-12 -4 -70 -20q-14 -2 -41 -2q-66 0 -110.5 41.5t-44.5 107.5z" />
<glyph horiz-adv-x="1107" d="M43 834q0 209 144.5 337.5t336.5 128.5q186 0 328.5 -122.5t142.5 -311.5q0 -55 -8 -95t-41 -105.5t-110.5 -151.5t-200.5 -195h223q156 0 156 -157q0 -162 -158 -162h-606q-190 0 -191 158q0 66 54 133q270 231 379.5 332.5t140.5 145.5t31 87q0 55 -44.5 89t-101.5 34 q-59 0 -102 -41t-43 -113q0 -61 -44 -119.5t-118 -58.5q-78 0 -123 58.5t-45 128.5z" />
<glyph horiz-adv-x="1126" d="M47 96q0 76 44 120t108 44q45 0 89 -27.5t64 -74.5q51 -119 154 -119q70 0 121 45t51 123q0 70 -36 129t-99 70h-68q-174 0 -174 139q0 74 42 104.5t132 30.5q39 0 60 4q39 12 64.5 67.5t25.5 108.5q0 61 -34 98t-95 37q-121 0 -134 -102q-2 -33 -31.5 -72t-94.5 -39 q-170 0 -170 148q0 152 125.5 268.5t312.5 116.5q195 0 320.5 -130t125.5 -298q0 -205 -180 -320q117 -63 176.5 -164.5t59.5 -216.5q0 -188 -138.5 -331.5t-359.5 -143.5q-127 0 -232.5 57.5t-169.5 145.5q-59 84 -59 182z" />
<glyph horiz-adv-x="1191" d="M33 285q0 68 43 123l471 759q80 129 217 129q90 0 149.5 -60t59.5 -161v-647q154 -2 153 -164q0 -154 -151 -153v-170q0 -178 -164 -179q-76 0 -119 46.5t-43 132.5v165h-430q-88 0 -137 51.5t-49 127.5zM459 428h190v307z" />
<glyph horiz-adv-x="1185" d="M61 12q0 74 44.5 116t105.5 42q78 0 129 -70q31 -39 87 -64.5t112 -25.5q88 0 145 64.5t57 150.5q0 88 -54 152.5t-152 64.5q-35 0 -93.5 -15t-89.5 -15q-164 0 -164 157q0 33 97 527q31 150 190 149h430q74 0 117 -49t43 -121q0 -160 -160 -160h-340q-8 -57 -24 -157 q256 0 393 -151.5t137 -364.5q0 -221 -143.5 -386t-397.5 -165q-188 0 -328.5 105t-140.5 216z" />
<glyph horiz-adv-x="1153" d="M37 557q0 256 138 493.5t351 436.5q63 49 123 49q72 0 120 -44t48 -120q0 -61 -49 -110q-10 -10 -47 -42t-53.5 -47.5t-48 -47t-50 -54t-40 -55.5t-35.5 -66q57 31 165 31q186 0 289 -133t103 -318q0 -225 -142.5 -389t-367.5 -164q-238 0 -371 170t-133 410zM360 528 q0 -92 48.5 -161.5t132.5 -71.5q86 8 137 74.5t51 156.5q0 86 -49 147.5t-143 61.5q-86 0 -131.5 -61.5t-45.5 -145.5z" />
<glyph horiz-adv-x="1114" d="M35 1108q0 166 176 166h645q70 0 122 -50t52 -128q0 -35 -18 -82l-484 -1145q-55 -129 -172 -129q-78 0 -115.5 48t-37.5 114q0 43 18 84l410 956h-420q-176 0 -176 166z" />
<glyph horiz-adv-x="1126" d="M41 485q0 106 58.5 207t148.5 152q-70 43 -113 126t-43 175q0 180 132 304t317 124q190 0 314 -120t124 -308q0 -82 -45 -164t-113 -125q84 -41 149.5 -153.5t65.5 -221.5q0 -207 -143 -355.5t-350 -148.5q-223 0 -362.5 143.5t-139.5 364.5zM377 492q0 -80 45 -133.5 t121 -53.5q70 0 113.5 53.5t43.5 128.5q0 80 -45 134.5t-112 54.5q-74 0 -120 -54t-46 -130zM420 1135q0 -59 30.5 -100.5t86.5 -41.5q47 0 77.5 43t30.5 98.5t-31.5 87t-74.5 31.5q-47 0 -83 -31.5t-36 -86.5z" />
<glyph horiz-adv-x="1191" d="M49 739q0 221 138.5 383t385.5 162q233 0 372.5 -168t139.5 -424q0 -106 -24.5 -219t-78.5 -242t-160.5 -265t-254.5 -255q-49 -39 -112 -39q-66 0 -111 43t-45 107q0 84 68 139q209 168 315 326q-98 -35 -193 -35q-201 0 -320.5 149.5t-119.5 337.5zM377 719 q0 -104 55 -164.5t135 -60.5q86 0 142.5 56t56.5 167q0 92 -52 162.5t-149 70.5q-90 0 -139 -70.5t-49 -160.5z" />
<glyph horiz-adv-x="1323" d="M8 156q0 37 17 75l407 854q53 139 190.5 139.5t190.5 -137.5l426 -858q16 -39 16 -75q0 -70 -40.5 -112t-114.5 -42q-113 0 -150 100l6 -8l-98 184h-463l-73 -153l2 6q-43 -129 -168 -129q-74 0 -111 45t-37 111zM528 578h191q-2 4 -16.5 38.5t-34 72.5t-45.5 81z" />
<glyph horiz-adv-x="1175" d="M39 180v844q0 178 166 178h332q182 0 304 -83t122 -255q0 -121 -76 -207q76 -49 122 -125.5t46 -154.5q0 -152 -116 -264.5t-312 -112.5h-391q-94 0 -132 31q-65 43 -65 149zM356 315h215q63 0 99.5 28t36.5 65q0 39 -41 66.5t-119 27.5h-191v-187zM356 725h189 q55 0 84.5 24.5t29.5 59.5q0 33 -24.5 56.5t-67.5 23.5h-211v-164z" />
<glyph horiz-adv-x="1294" d="M55 606q0 281 181.5 455t468.5 174q260 0 448 -174q63 -57 64 -133q0 -72 -46.5 -118t-111.5 -46q-76 0 -119 49q-90 88 -240 88q-131 0 -220 -74.5t-89 -208.5q0 -141 88 -227t223.5 -86t235.5 94q41 47 109 47q80 0 118.5 -44t38.5 -111q0 -84 -59 -137 q-201 -172 -451 -172q-283 0 -461 174t-178 450z" />
<glyph horiz-adv-x="1351" d="M43 166v858q0 178 197 178h362q236 0 398.5 -161.5t162.5 -444.5q0 -287 -173 -441.5t-425 -154.5h-354q-98 0 -133 32t-35 134zM360 315h195q123 0 202 69t79 212q0 147 -75 220t-181 73h-220v-574z" />
<glyph horiz-adv-x="993" d="M35 174v856q0 172 164 172h553q82 0 120.5 -38t38.5 -120q0 -156 -159 -155h-404v-146h318q84 0 121.5 -30.5t37.5 -106.5t-37.5 -105.5t-121.5 -29.5h-318v-156h420q170 0 170 -157.5t-170 -157.5h-569q-106 0 -135 32.5t-29 141.5z" />
<glyph horiz-adv-x="909" d="M33 145v879q0 178 164 178h538q160 0 160 -158q0 -156 -160 -155h-387v-191h270q158 0 158 -161q0 -156 -158 -156h-270v-236q0 -145 -160 -145q-155 0 -155 145z" />
<glyph horiz-adv-x="1478" d="M53 580q0 266 172 455.5t447 189.5q119 0 239.5 -49.5t212.5 -145.5q31 -37 31 -78q0 -59 -51 -105t-115 -46q-51 0 -94 28q-98 88 -229 89q-125 0 -207 -91.5t-82 -228.5t94 -227t215 -90q172 0 248 176h-186q-61 0 -93 33.5t-32 82.5q0 53 34.5 95.5t94.5 42.5l333 -2 q113 -6 147 -55.5t34 -153.5q0 -217 -165 -367.5t-435 -150.5q-264 0 -438.5 182.5t-174.5 415.5z" />
<glyph horiz-adv-x="1175" d="M39 158v891q0 160 156 159q160 0 159 -159v-277h387v277q0 160 158 159q160 0 160 -159v-891q0 -158 -160 -158q-158 0 -158 158v297h-387v-297q0 -158 -157.5 -158t-157.5 158z" />
<glyph horiz-adv-x="346" d="M6 160v887q0 160 158 159.5t158 -159.5v-887q0 -160 -158 -160t-158 160z" />
<glyph horiz-adv-x="862" d="M27 209q0 162 153 162q45 0 127 -60q41 -25 82 -24q76 0 76 75v685q0 160 158 159q160 0 159 -159v-685q0 -176 -109.5 -281.5t-285.5 -105.5t-307 115q-53 45 -53 119z" />
<glyph horiz-adv-x="1210" d="M43 147v920q0 145 156 145q160 0 159 -145v-338l486 434q53 47 102 47q63 0 114.5 -51t51.5 -115q0 -68 -47 -108l-324 -272l353 -388q55 -47 55 -118q0 -70 -58.5 -115t-101.5 -45q-72 0 -129 61l-354 383l-148 -127v-168q0 -147 -155 -147q-160 0 -160 147z" />
<glyph horiz-adv-x="1040" d="M37 197v852q0 160 156 159q160 0 159 -159v-734h492q160 0 160 -155q0 -160 -160 -160h-627q-180 0 -180 197z" />
<glyph horiz-adv-x="1710" d="M59 156q0 29 4 43l179 821q43 205 207 205q154 0 213 -183l143 -464q27 72 76 236.5t71 227.5q63 180 215 181q172 0 203 -213v8l172 -836v-16q0 -2 2 -6q0 -72 -45 -115t-115 -43q-135 0 -161 145l-93 508q-25 -74 -83 -254t-89 -264q-49 -137 -159 -137 q-117 0 -160 137l-162 520q-20 -90 -55 -273t-45 -237v9q-20 -154 -162 -154q-72 0 -114 39t-42 115z" />
<glyph horiz-adv-x="1232" d="M41 162v891q0 172 156 172q100 0 170 -103l438 -532v473q0 160 153 160q160 0 160 -160v-891q0 -172 -157 -172q-98 0 -162 88l-443 533v-459q0 -162 -157.5 -162t-157.5 162z" />
<glyph horiz-adv-x="1402" d="M49 600q0 104 38 207.5t110.5 197t196.5 150.5t278 57q264 0 441 -177t177 -441q0 -254 -173 -432t-445 -178q-281 0 -452 179t-171 437zM371 604q0 -129 85 -218t220 -89q127 0 208 84t81 209q0 129 -83 218t-210 89q-137 0 -219 -81t-82 -212z" />
<glyph horiz-adv-x="1087" d="M39 160v880q0 164 166 164h368q219 0 340 -126t121 -302q0 -182 -115.5 -314t-332.5 -132h-234v-170q0 -160 -157 -160q-156 0 -156 160zM352 645h226q74 0 107.5 34t33.5 83q0 53 -41 91t-129 38h-197v-246z" />
<glyph horiz-adv-x="1564" d="M49 600q0 104 38 207.5t110.5 197t196.5 150.5t278 57q264 0 441 -177t177 -441q0 -186 -96 -336q2 -4 12 -14l15 -15q43 -49 43 -108q0 -63 -41 -109.5t-111 -46.5q-63 0 -106 43l-41 41q-131 -66 -293 -65q-281 0 -452 179t-171 437zM371 604q0 -129 85 -218t220 -89 q25 0 37 2q-45 74 -45 109q0 70 50 120t113 50q51 0 125 -64q8 45 9 76q0 129 -83 218t-210 89q-137 0 -219 -81t-82 -212z" />
<glyph horiz-adv-x="1091" d="M37 174v885q0 164 194 164h275q238 0 373 -104.5t135 -313.5q0 -223 -180 -332l137 -211l-6 8q37 -43 36 -123q0 -68 -37.5 -108.5t-109.5 -40.5q-78 0 -145 86l-197 291h-160v-201q0 -174 -157.5 -174t-157.5 174zM352 688h230q55 0 87.5 35t32.5 80q0 43 -31.5 73.5 t-88.5 30.5h-230v-219z" />
<glyph horiz-adv-x="1019" d="M49 231q0 66 44 101t104 35q57 0 157.5 -56.5t184.5 -56.5q100 0 100 74q0 29 -42 60.5t-105.5 60t-138 70.5t-138 86t-105.5 109.5t-42 139.5q0 180 129 274.5t323 94.5q182 0 328 -76q82 -45 82 -131q0 -53 -38 -92t-104 -39q-63 0 -102 22q-70 39 -207 39 q-94 0 -94 -74q0 -37 60.5 -73.5t145.5 -72.5t171 -81t146.5 -119.5t60.5 -169.5q0 -188 -138.5 -281t-326.5 -93q-195 0 -391 118q-64 45 -64 131z" />
<glyph horiz-adv-x="1077" d="M39 1044q0 158 164 158h671q160 0 160 -158q0 -156 -160 -155h-178v-721q0 -168 -157 -168q-160 0 -160 168v721h-176q-164 -1 -164 155z" />
<glyph horiz-adv-x="1204" d="M41 610v426q0 170 166 170q164 0 164 -170v-409q0 -317 215 -318q94 0 144 71t50 247v409q0 170 166 170q168 0 168 -170v-426q0 -629 -545 -628q-242 0 -385 148t-143 480z" />
<glyph horiz-adv-x="1216" d="M41 1057q0 156 162 155q117 0 155 -116l215 -615q41 98 113 318.5t102 300.5q43 111 150 110q61 0 116.5 -52t55.5 -114q0 -25 -16 -61l-330 -813q-70 -170 -191 -170q-113 0 -176 154l-346 835q-10 35 -10 68z" />
<glyph horiz-adv-x="1759" d="M61 1067q0 72 47.5 115t112.5 43q135 0 162 -144l111 -549l155 560q39 133 182 133q145 0 181 -133l147 -547q20 80 55 273.5t52 262.5q27 147 164 148q68 0 115.5 -46t47.5 -116q0 -25 -8 -45l4 6l-211 -866q-16 -72 -73.5 -117t-130.5 -45q-70 0 -127.5 38t-73.5 116 q-37 121 -73 248.5t-73 252.5l-141 -479q-27 -88 -84 -134t-125 -46q-72 0 -128 49t-77 129l-206 854l2 -6q-7 20 -7 45z" />
<glyph horiz-adv-x="1120" d="M39 150q0 72 49 135l281 329l-242 314q-37 43 -37 106q0 68 47 113t113 45q94 0 147 -80l146 -252l151 256q53 78 144 78q68 0 114.5 -44t46.5 -112q0 -61 -41 -110l-243 -303l280 -332q51 -63 52 -143q0 -150 -148 -150q-109 0 -166 94l-201 281l-198 -283 q-57 -88 -152 -88q-143 1 -143 146z" />
<glyph horiz-adv-x="1157" d="M41 1065q0 154 149 154q90 0 136 -84l241 -461q39 66 118 232.5t114 226.5q53 86 145 86q152 0 152 -148q0 -41 -23 -86l-354 -602v-213q0 -170 -160 -170t-160 170v219l-336 584q-22 37 -22 92z" />
<glyph horiz-adv-x="1175" d="M39 168q0 68 37 123l497 600h-348q-162 0 -162 153q0 160 162 160h641q92 0 137.5 -41t45.5 -106q0 -61 -54 -144l-497 -598h413q162 0 162 -153q0 -162 -162 -162h-718q-154 0 -154 168z" />
<glyph horiz-adv-x="1323" d="M8 156q0 37 17 75l407 854q53 139 190.5 139.5t190.5 -137.5l426 -858q16 -39 16 -75q0 -70 -40.5 -112t-114.5 -42q-113 0 -150 100l6 -8l-98 184h-463l-73 -153l2 6q-43 -129 -168 -129q-74 0 -111 45t-37 111zM528 578h191q-2 4 -16.5 38.5t-34 72.5t-45.5 81z" />
<glyph horiz-adv-x="1175" d="M39 180v844q0 178 166 178h332q182 0 304 -83t122 -255q0 -121 -76 -207q76 -49 122 -125.5t46 -154.5q0 -152 -116 -264.5t-312 -112.5h-391q-94 0 -132 31q-65 43 -65 149zM356 315h215q63 0 99.5 28t36.5 65q0 39 -41 66.5t-119 27.5h-191v-187zM356 725h189 q55 0 84.5 24.5t29.5 59.5q0 33 -24.5 56.5t-67.5 23.5h-211v-164z" />
<glyph horiz-adv-x="993" d="M35 160v862q0 178 164 178h575q72 0 117 -48t45 -114q0 -154 -162 -153h-424v-725q0 -160 -160 -160q-155 0 -155 160z" />
<glyph horiz-adv-x="1429" d="M47 137q0 29 14 70l402 880q63 137 186 138q145 0 189 -146l413 -872q14 -35 15 -72q0 -135 -199 -135h-844q-176 0 -176 137zM483 322h342l-174 389z" />
<glyph horiz-adv-x="993" d="M35 174v856q0 172 164 172h553q82 0 120.5 -38t38.5 -120q0 -156 -159 -155h-404v-146h318q84 0 121.5 -30.5t37.5 -106.5t-37.5 -105.5t-121.5 -29.5h-318v-156h420q170 0 170 -157.5t-170 -157.5h-569q-106 0 -135 32.5t-29 141.5z" />
<glyph horiz-adv-x="1175" d="M39 168q0 68 37 123l497 600h-348q-162 0 -162 153q0 160 162 160h641q92 0 137.5 -41t45.5 -106q0 -61 -54 -144l-497 -598h413q162 0 162 -153q0 -162 -162 -162h-718q-154 0 -154 168z" />
<glyph horiz-adv-x="1175" d="M39 158v891q0 160 156 159q160 0 159 -159v-277h387v277q0 160 158 159q160 0 160 -159v-891q0 -158 -160 -158q-158 0 -158 158v297h-387v-297q0 -158 -157.5 -158t-157.5 158z" />
<glyph horiz-adv-x="1374" d="M49 600q0 104 38 207.5t110.5 197t196.5 150.5t278 57q264 0 441 -177t177 -441q0 -254 -173 -432t-445 -178q-281 0 -452 179t-171 437zM371 604q0 -129 85 -218t220 -89q127 0 208 84t81 209q0 129 -83 218t-210 89q-137 0 -219 -81t-82 -212zM471 596q0 160 158 160 h76q160 0 159 -160q0 -158 -159 -158h-76q-78 0 -118 42t-40 116z" />
<glyph horiz-adv-x="423" d="M45 160v887q0 160 157.5 159.5t157.5 -159.5v-887q0 -160 -157.5 -160t-157.5 160z" />
<glyph horiz-adv-x="1210" d="M43 147v920q0 145 156 145q160 0 159 -145v-338l486 434q53 47 102 47q63 0 114.5 -51t51.5 -115q0 -68 -47 -108l-324 -272l353 -388q55 -47 55 -118q0 -70 -58.5 -115t-101.5 -45q-72 0 -129 61l-354 383l-148 -127v-168q0 -147 -155 -147q-160 0 -160 147z" />
<glyph horiz-adv-x="1323" d="M29 156q0 37 16 75l408 854q53 139 190 139.5t191 -137.5l426 -858q16 -39 16 -75q0 -70 -41 -112t-115 -42q-113 0 -149 100l-328 648l-299 -623q-51 -125 -168 -125q-74 0 -110.5 45t-36.5 111z" />
<glyph horiz-adv-x="1636" d="M39 156q0 29 4 43l178 821q43 205 207 205q154 0 213 -183l143 -464q27 72 76 236.5t72 227.5q63 180 215 181q176 0 203 -205l172 -852q0 -2 2 -6q0 -72 -45 -115t-115 -43q-135 0 -162 145l-92 508q-25 -74 -83 -254t-89 -264q-49 -137 -160 -137q-117 0 -160 137 l-161 520q-20 -90 -55 -273t-46 -237v9q-20 -154 -161 -154q-72 0 -114 39t-42 115z" />
<glyph horiz-adv-x="1232" d="M41 162v891q0 172 156 172q100 0 170 -103l438 -532v473q0 160 153 160q160 0 160 -160v-891q0 -172 -157 -172q-98 0 -162 88l-443 533v-459q0 -162 -157.5 -162t-157.5 162z" />
<glyph horiz-adv-x="1331" d="M41 161.5q0 157.5 168 157.5h842q168 0 168 -157.5t-168 -157.5h-842q-168 0 -168 157.5zM66 1044q0 160 157 160h811q160 0 160 -160q0 -154 -160 -153h-811q-157 -1 -157 153zM195 612q0 74 38.5 106t118.5 32h539q82 0 120 -33t38 -111q0 -72 -38 -104.5t-120 -32.5 h-539q-80 0 -118.5 33.5t-38.5 109.5z" />
<glyph horiz-adv-x="1402" d="M49 600q0 104 38 207.5t110.5 197t196.5 150.5t278 57q264 0 441 -177t177 -441q0 -254 -173 -432t-445 -178q-281 0 -452 179t-171 437zM371 604q0 -129 85 -218t220 -89q127 0 208 84t81 209q0 129 -83 218t-210 89q-137 0 -219 -81t-82 -212z" />
<glyph horiz-adv-x="1163" d="M39 160v874q0 162 156 162h702q63 0 111.5 -49t48.5 -113v-874q0 -160 -156 -160q-160 0 -160 160v717h-387v-717q0 -160 -161 -160q-154 0 -154 160z" />
<glyph horiz-adv-x="1087" d="M39 160v880q0 164 166 164h368q219 0 340 -126t121 -302q0 -182 -115.5 -314t-332.5 -132h-234v-170q0 -160 -157 -160q-156 0 -156 160zM352 645h226q74 0 107.5 34t33.5 83q0 53 -41 91t-129 38h-197v-246z" />
<glyph horiz-adv-x="1157" d="M41 168q0 49 37 104l313 346l-272 310q-55 84 -56 125q0 152 185 151h659q160 0 160 -160q0 -76 -38 -105.5t-122 -29.5h-356l170 -186q37 -55 37 -109q0 -37 -29 -90l-221 -229h422q84 0 122 -32t38 -107q0 -156 -160 -156h-735q-154 0 -154 168z" />
<glyph horiz-adv-x="1077" d="M39 1044q0 158 164 158h671q160 0 160 -158q0 -156 -160 -155h-178v-721q0 -168 -157 -168q-160 0 -160 168v721h-176q-164 -1 -164 155z" />
<glyph horiz-adv-x="1157" d="M41 1065q0 154 149 154q90 0 136 -84l241 -461q39 66 118 232.5t114 226.5q53 86 145 86q152 0 152 -148q0 -41 -23 -86l-354 -602v-213q0 -170 -160 -170t-160 170v219l-336 584q-22 37 -22 92z" />
<glyph horiz-adv-x="1361" d="M41 616.5q0 174.5 121 290t330 135.5v15q0 156 159 155q154 0 160 -147v22v-45q219 -14 332.5 -128.5t113.5 -299.5q0 -172 -119.5 -283.5t-328.5 -131.5v-37q0 -162 -158 -162q-160 0 -159 162v37q-217 20 -334 131.5t-117 286zM340 623q0 -55 41 -95.5t111 -40.5v267 q-72 0 -112 -39t-40 -92zM809 487q70 0 111 42t41 98q0 51 -39 89t-113 38v-267z" />
<glyph horiz-adv-x="1095" d="M39 150q0 72 49 135l281 329l-242 314q-37 43 -37 106q0 68 47 113t113 45q94 0 147 -80l146 -252l151 256q53 78 144 78q68 0 114.5 -44t46.5 -112q0 -61 -41 -110l-243 -303l280 -332q51 -63 52 -143q0 -150 -148 -150q-109 0 -166 94l-201 281l-198 -283 q-57 -88 -152 -88q-143 1 -143 146z" />
<glyph horiz-adv-x="1429" d="M47 856v135q0 158 162 158q154 0 153 -158v-112q0 -279 136 -338v532q0 160 157.5 160t157.5 -160v-536q133 45 133 342v112q0 158 160 158q158 0 158 -158v-135q0 -565 -451 -614v-84q0 -158 -157.5 -158t-157.5 158v86q-451 57 -451 612z" />
<glyph horiz-adv-x="1300" d="M121 782q0 174 137 302t374.5 128t375 -128t137.5 -304q0 -168 -132 -284.5t-380 -116.5t-380 116.5t-132 286.5zM129 157.5q0 157.5 152 157.5h723q154 0 153.5 -157.5t-153.5 -157.5h-723q-152 0 -152 157.5zM440 792.5q0 -61.5 52.5 -104.5t144.5 -43q96 0 146.5 40 t50.5 99q0 61 -53.5 104.5t-147.5 43.5t-143.5 -39t-49.5 -100.5z" />
<glyph horiz-adv-x="1392" d="M49 156q0 37 17 75l407 854q53 139 190.5 139.5t190.5 -137.5l426 -858q16 -39 16 -75q0 -70 -41 -112t-114 -42q-113 0 -150 100l6 -8l-98 184h-463l-74 -153l3 6q-43 -129 -168 -129q-74 0 -111 45t-37 111zM569 578h191q-2 4 -16.5 38.5t-34 72.5t-45.5 81z" />
<glyph horiz-adv-x="993" d="M35 174v856q0 172 164 172h553q82 0 120.5 -38t38.5 -120q0 -156 -159 -155h-404v-146h318q84 0 121.5 -30.5t37.5 -106.5t-37.5 -105.5t-121.5 -29.5h-318v-156h420q170 0 170 -157.5t-170 -157.5h-569q-106 0 -135 32.5t-29 141.5z" />
<glyph horiz-adv-x="423" d="M45 160v887q0 160 157.5 159.5t157.5 -159.5v-887q0 -160 -157.5 -160t-157.5 160z" />
<glyph horiz-adv-x="1175" d="M39 158v891q0 160 156 159q160 0 159 -159v-277h387v277q0 160 158 159q160 0 160 -159v-891q0 -158 -160 -158q-158 0 -158 158v297h-387v-297q0 -158 -157.5 -158t-157.5 158z" />
<glyph horiz-adv-x="1402" d="M49 600q0 104 38 207.5t110.5 197t196.5 150.5t278 57q264 0 441 -177t177 -441q0 -254 -173 -432t-445 -178q-281 0 -452 179t-171 437zM371 604q0 -129 85 -218t220 -89q127 0 208 84t81 209q0 129 -83 218t-210 89q-137 0 -219 -81t-82 -212z" />
<glyph horiz-adv-x="1120" d="M20 1065q0 154 150 154q90 0 135 -84l242 -461q39 66 117.5 232.5t113.5 226.5q53 86 146 86q152 0 151 -148q0 -41 -22 -86l-355 -602v-213q0 -170 -159.5 -170t-159.5 170v219l-336 584q-23 37 -23 92z" />
<glyph horiz-adv-x="1300" d="M129 157.5q0 157.5 152 157.5h723q154 0 153.5 -157.5t-153.5 -157.5h-723q-152 0 -152 157.5zM145 750q0 86 27 163.5t82 147t152.5 110.5t226.5 41q244 0 367.5 -130t123.5 -316q0 -174 -125 -291t-366 -117q-223 0 -355.5 110t-132.5 282zM455 786q0 -61 45 -105 t137 -44q84 0 134 42t50 97q0 57 -52 100.5t-136 43.5q-82 0 -130 -40.5t-48 -93.5z" />
<glyph horiz-adv-x="346" d="M6 160v887q0 160 158 159.5t158 -159.5v-887q0 -160 -158 -160t-158 160z" />
<glyph horiz-adv-x="1157" d="M41 1065q0 154 149 154q90 0 136 -84l241 -461q39 66 118 232.5t114 226.5q53 86 145 86q152 0 152 -148q0 -41 -23 -86l-354 -602v-213q0 -170 -160 -170t-160 170v219l-336 584q-22 37 -22 92z" />
<glyph horiz-adv-x="1157" d="M51 168q0 49 37 104l313 346l-272 310q-55 84 -55 125q0 152 184 151h660q160 0 159 -160q0 -76 -38 -105.5t-121 -29.5h-357l170 -186q37 -55 37 -109q0 -37 -29 -90l-221 -229h422q84 0 122 -32t38 -107q0 -156 -160 -156h-735q-154 0 -154 168z" />
<glyph horiz-adv-x="346" d="M6 160v887q0 160 158 159.5t158 -159.5v-887q0 -160 -158 -160t-158 160z" />
<glyph horiz-adv-x="1157" d="M41 1065q0 154 149 154q90 0 136 -84l241 -461q39 66 118 232.5t114 226.5q53 86 145 86q152 0 152 -148q0 -41 -23 -86l-354 -602v-213q0 -170 -160 -170t-160 170v219l-336 584q-22 37 -22 92z" />
<glyph d="M141 774q0 135 30 268.5t89 258t169 202.5t253 78h8q115 0 209 -51t152.5 -134t98.5 -190.5t56.5 -214t16.5 -213.5q0 -131 -30 -264t-89.5 -257t-168 -202t-249.5 -78q-147 0 -258 75t-170 197t-88 254t-29 271zM477 772q0 -104 18.5 -205.5t68.5 -183.5t122 -82 q53 0 95 49t64.5 124t34 150.5t11.5 143.5q0 78 -11.5 159t-34 156.5t-63.5 122.5t-94 47q-59 0 -103 -49t-65.5 -128t-32 -154.5t-10.5 -149.5z" />
<glyph d="M178 131q0 72 38 101.5t122 29.5h242v901q-63 -25 -111 -24q-63 0 -109.5 43t-46.5 108q0 55 34 100.5t102 63.5l301 82q106 0 143 -96q16 -23 16 -125v-1053h215q84 0 123 -29.5t39 -103.5q0 -72 -39 -99.5t-123 -27.5h-786q-84 0 -122 27.5t-38 101.5z" />
<glyph d="M207 1108q0 207 145.5 337t335.5 130q186 0 328.5 -122t142.5 -310q0 -201 -149 -404l-318 -420h330q156 0 156 -157q0 -162 -158 -162h-606q-190 0 -191 158q0 59 45 121l498 673q61 80 61 176q0 55 -44 89t-101 34q-59 0 -102 -40t-43 -111q0 -63 -44 -121.5 t-118 -58.5q-78 0 -123 59t-45 129z" />
<glyph d="M211 362q0 76 44 120t107 44q45 0 89.5 -27.5t64.5 -74.5q51 -119 154 -119q70 0 121 45t51 123q0 70 -36 129.5t-99 69.5h-68q-174 0 -174 139q0 74 42 104.5t132 30.5q39 0 59 4q39 12 64.5 67.5t25.5 108.5q0 61 -33.5 98.5t-95.5 37.5q-121 0 -133 -103 q-2 -33 -31.5 -71.5t-95.5 -38.5q-170 0 -170 147q0 152 126 268.5t313 116.5q195 0 320.5 -130t125.5 -298q0 -205 -180 -319q117 -63 176 -165t59 -216q0 -188 -138 -332t-359 -144q-127 0 -232.5 57.5t-169.5 145.5q-59 84 -59 182z" />
<glyph d="M135 520q0 68 43 125l-4 -6l475 766q82 131 217 131q90 0 149.5 -61.5t59.5 -163.5v-647q154 0 154 -162q0 -156 -152 -156v-170q0 -176 -164 -176q-76 0 -118.5 45t-42.5 131v168h-430q-88 0 -137.5 51t-49.5 125zM561 664h191v329z" />
<glyph d="M164 299q0 74 44 116t105 42q78 0 129 -70q31 -39 87.5 -64.5t111.5 -25.5q88 0 145.5 64.5t57.5 150.5q0 88 -54.5 152.5t-152.5 64.5q-35 0 -93.5 -15.5t-88.5 -15.5q-164 0 -164 158q0 33 96 526q31 150 191 150h430q74 0 116.5 -49t42.5 -121q0 -160 -159 -160h-340 q-8 -57 -25 -158q256 0 393.5 -151.5t137.5 -364.5q0 -221 -143.5 -386t-397.5 -165q-188 0 -328.5 105.5t-140.5 216.5z" />
<glyph d="M180 557q0 256 138.5 493.5t351.5 436.5q63 49 123 49q72 0 120 -44t48 -120q0 -61 -50 -110q-10 -10 -47 -42t-53 -47.5t-48 -47t-50.5 -54t-40 -55.5t-35.5 -66q57 31 166 31q186 0 288.5 -133t102.5 -318q0 -225 -142.5 -389t-367.5 -164q-238 0 -371 170t-133 410z M504 528q0 -92 48 -161.5t132 -71.5q86 8 137 74.5t51 156.5q0 86 -49 147.5t-143 61.5q-86 0 -131 -61.5t-45 -145.5z" />
<glyph d="M178 1370q0 164 176 164h645q70 0 122.5 -49t52.5 -127q0 -39 -19 -84l-483 -1145q-55 -129 -172 -129q-78 0 -116 48t-38 114q0 43 19 84l409 956h-420q-176 0 -176 168z" />
<glyph d="M184 485q0 106 58.5 207t148.5 152q-70 43 -112.5 126t-42.5 175q0 180 132 304t316 124q190 0 314 -120t124 -308q0 -82 -45 -164t-112 -125q84 -41 149.5 -153.5t65.5 -221.5q0 -207 -143.5 -355.5t-350.5 -148.5q-223 0 -362.5 143.5t-139.5 364.5zM520 492 q0 -80 45 -133.5t121 -53.5q70 0 114 53.5t44 128.5q0 80 -45 134.5t-113 54.5q-74 0 -120 -54t-46 -130zM563 1135q0 -59 31 -100.5t86 -41.5q47 0 77.5 43t30.5 98.5t-31.5 87t-74.5 31.5q-47 0 -83 -31.5t-36 -86.5z" />
<glyph d="M152 1034q0 221 138 383t386 162q233 0 372.5 -168t139.5 -424q0 -106 -24.5 -219t-79 -242t-161 -265t-253.5 -255q-49 -39 -113 -39q-66 0 -111 43t-45 107q0 84 68 139q209 168 315 326q-98 -35 -192 -35q-201 0 -320.5 149.5t-119.5 337.5zM479 1024 q0 -104 55.5 -164.5t135.5 -60.5q86 0 142 56t56 167q0 92 -52 162.5t-148 70.5q-90 0 -139.5 -70.5t-49.5 -160.5z" />
<glyph horiz-adv-x="1288" d="M143 633q0 170 58.5 315.5t183.5 242.5t297 97h8q254 0 393.5 -192.5t139.5 -456.5q0 -172 -56.5 -318.5t-181.5 -245t-299 -98.5q-256 0 -399.5 195t-143.5 461zM471 637q0 -137 56.5 -236.5t158.5 -99.5q98 0 154.5 96.5t56.5 229.5q0 135 -56.5 235.5t-152.5 100.5 q-104 0 -160.5 -96.5t-56.5 -229.5z" />
<glyph d="M178 131q0 72 38 101.5t122 29.5h242v649q-63 -25 -111 -24q-63 0 -109.5 43t-46.5 108q0 55 34 100.5t102 63.5l301 82q106 0 143 -96q16 -23 16 -125v-801h215q84 0 123 -29.5t39 -103.5q0 -72 -39 -99.5t-123 -27.5h-786q-84 0 -122 27.5t-38 101.5z" />
<glyph d="M207 834q0 209 144.5 337.5t336.5 128.5q186 0 328.5 -122.5t142.5 -311.5q0 -55 -8 -95t-41 -105.5t-110.5 -151.5t-200.5 -195h223q156 0 156 -157q0 -162 -158 -162h-606q-190 0 -191 158q0 66 53 133q270 231 380 332.5t140.5 145.5t30.5 87q0 55 -44 89t-101 34 q-59 0 -102 -41t-43 -113q0 -61 -44 -119.5t-118 -58.5q-78 0 -123 58.5t-45 128.5z" />
<glyph d="M211 96q0 76 44 120t107 44q45 0 89.5 -27.5t64.5 -74.5q51 -119 154 -119q70 0 121 45t51 123q0 70 -36 129t-99 70h-68q-174 0 -174 139q0 74 42 104.5t132 30.5q39 0 59 4q39 12 64.5 67.5t25.5 108.5q0 61 -33.5 98t-95.5 37q-121 0 -133 -102q-2 -33 -31.5 -72 t-95.5 -39q-170 0 -170 148q0 152 126 268.5t313 116.5q195 0 320.5 -130t125.5 -298q0 -205 -180 -320q117 -63 176 -164.5t59 -216.5q0 -188 -138 -331.5t-359 -143.5q-127 0 -232.5 57.5t-169.5 145.5q-59 84 -59 182z" />
<glyph d="M135 285q0 68 43 123l471 759q80 129 217 129q90 0 149.5 -60t59.5 -161v-647q154 -2 154 -164q0 -154 -152 -153v-170q0 -178 -164 -179q-76 0 -118.5 46.5t-42.5 132.5v165h-430q-88 0 -137.5 51.5t-49.5 127.5zM561 428h191v307z" />
<glyph d="M164 12q0 74 44 116t105 42q78 0 129 -70q31 -39 87.5 -64.5t111.5 -25.5q88 0 145.5 64.5t57.5 150.5q0 88 -54.5 152.5t-152.5 64.5q-35 0 -93.5 -15t-88.5 -15q-164 0 -164 157q0 33 96 527q31 150 191 149h430q74 0 116.5 -49t42.5 -121q0 -160 -159 -160h-340 q-8 -57 -25 -157q256 0 393.5 -151.5t137.5 -364.5q0 -221 -143.5 -386t-397.5 -165q-188 0 -328.5 105t-140.5 216z" />
<glyph d="M180 557q0 256 138.5 493.5t351.5 436.5q63 49 123 49q72 0 120 -44t48 -120q0 -61 -50 -110q-10 -10 -47 -42t-53 -47.5t-48 -47t-50.5 -54t-40 -55.5t-35.5 -66q57 31 166 31q186 0 288.5 -133t102.5 -318q0 -225 -142.5 -389t-367.5 -164q-238 0 -371 170t-133 410z M504 528q0 -92 48 -161.5t132 -71.5q86 8 137 74.5t51 156.5q0 86 -49 147.5t-143 61.5q-86 0 -131 -61.5t-45 -145.5z" />
<glyph d="M178 1108q0 166 176 166h645q70 0 122.5 -50t52.5 -128q0 -35 -19 -82l-483 -1145q-55 -129 -172 -129q-78 0 -116 48t-38 114q0 43 19 84l409 956h-420q-176 0 -176 166z" />
<glyph d="M184 485q0 106 58.5 207t148.5 152q-70 43 -112.5 126t-42.5 175q0 180 132 304t316 124q190 0 314 -120t124 -308q0 -82 -45 -164t-112 -125q84 -41 149.5 -153.5t65.5 -221.5q0 -207 -143.5 -355.5t-350.5 -148.5q-223 0 -362.5 143.5t-139.5 364.5zM520 492 q0 -80 45 -133.5t121 -53.5q70 0 114 53.5t44 128.5q0 80 -45 134.5t-113 54.5q-74 0 -120 -54t-46 -130zM563 1135q0 -59 31 -100.5t86 -41.5q47 0 77.5 43t30.5 98.5t-31.5 87t-74.5 31.5q-47 0 -83 -31.5t-36 -86.5z" />
<glyph d="M152 739q0 221 138 383t386 162q233 0 372.5 -168t139.5 -424q0 -106 -24.5 -219t-79 -242t-161 -265t-253.5 -255q-49 -39 -113 -39q-66 0 -111 43t-45 107q0 84 68 139q209 168 315 326q-98 -35 -192 -35q-201 0 -320.5 149.5t-119.5 337.5zM479 719 q0 -104 55.5 -164.5t135.5 -60.5q86 0 142 56t56 167q0 92 -52 162.5t-148 70.5q-90 0 -139.5 -70.5t-49.5 -160.5z" />
</font>
</defs>
</svg>
